<svg width="52" height="52" viewBox="0 0 52 52" fill="none" xmlns="http://www.w3.org/2000/svg">
<rect width="52" height="52" fill="white"/>
<g clip-path="url(#clip0_62_369)">
<g clip-path="url(#clip1_62_369)">
<mask id="mask0_62_369" style="mask-type:luminance" maskUnits="userSpaceOnUse" x="2" y="0" width="48" height="48">
<path d="M50 0H2V48H50V0Z" fill="white"/>
</mask>
<g mask="url(#mask0_62_369)">
<path d="M27.3685 10.3937C29.7606 10.7071 32.033 11.6265 33.9701 13.0646C34.3606 13.3733 34.7575 13.6567 35.1039 14.0095C37.7464 16.4519 39.363 19.8066 39.6268 23.3953C40.367 23.4633 41.0693 23.7536 41.6415 24.228C42.2137 24.7024 42.6291 25.3388 42.8331 26.0536C43.0718 26.9382 43.033 27.8747 42.7221 28.7366C42.4111 29.5985 41.843 30.344 41.0945 30.8725C40.4016 31.3575 39.5512 31.6284 38.7008 31.6095C38.3858 31.6095 38.0709 31.5087 37.7559 31.4961C37.6362 31.6347 37.548 31.8047 37.4535 31.9559C36.3071 33.7643 34.763 35.287 32.9389 36.4081C31.1147 37.5292 29.0587 38.2191 26.9276 38.4252C26.2346 38.4693 25.548 38.5512 24.8488 38.4693C22.3916 38.3515 20.0081 37.5925 17.9353 36.2678C15.8624 34.9431 14.1725 33.0988 13.0335 30.9183C11.8946 28.7379 11.3463 26.2972 11.4432 23.8391C11.5401 21.381 12.2788 18.9911 13.5858 16.9071C14.7667 15.0134 16.3811 13.4278 18.2956 12.281C20.2102 11.1343 22.37 10.4593 24.5969 10.3118C25.5165 10.2236 26.4488 10.2929 27.3685 10.3937Z" fill="black"/>
<path fill-rule="evenodd" clip-rule="evenodd" d="M33.8441 13.4425C31.3908 11.5714 28.3744 10.5896 25.2897 10.6583C24.4709 10.6457 23.6394 10.7591 22.8331 10.9102C20.4145 11.3957 18.1713 12.5237 16.3393 14.1756C14.5072 15.8276 13.1541 17.9426 12.4219 20.2982C11.6897 22.6539 11.6056 25.1633 12.1785 27.5627C12.7513 29.9622 13.9598 32.163 15.6771 33.9339C17.7633 36.0834 20.4938 37.4936 23.4541 37.9506C26.4144 38.4077 29.443 37.8865 32.0803 36.4662C34.285 35.2819 36.1244 33.4866 37.3968 31.3323L37.2079 31.2315C37.0315 31.1433 36.8488 31.0425 36.7039 30.9165C36.5653 30.7906 36.685 30.5512 36.874 30.6205C36.9685 30.6646 37.063 30.7213 37.1512 30.7717C37.7323 31.0994 38.3958 31.2523 39.0618 31.2121C39.7278 31.1719 40.368 30.9402 40.9055 30.5449C41.5883 30.063 42.106 29.3822 42.3878 28.5954C42.6696 27.8085 42.7019 26.9539 42.4803 26.148C42.2439 25.3281 41.7031 24.6295 40.9685 24.1953C40.5226 23.9379 40.0229 23.788 39.509 23.7573C38.9951 23.7267 38.4811 23.8163 38.0079 24.0189C37.9071 24.0693 37.7937 24.1134 37.6929 24.1008C37.5354 24.0882 37.5165 23.8362 37.6551 23.7732C38.159 23.5213 38.6945 23.4205 39.2551 23.3701C39.0004 19.8232 37.3735 16.5151 34.7197 14.148C34.4425 13.8961 34.1716 13.6378 33.8441 13.4362V13.4425ZM40.622 25.8016C40.748 25.726 40.7039 25.4803 40.5338 25.4866C40.4079 25.4866 40.2693 25.537 40.1433 25.5874L40.0551 25.6126C39.4836 25.7912 38.9422 26.0545 38.4488 26.3937C38.3102 26.5197 38.3102 26.6709 38.4551 26.7843C38.5624 26.8465 38.6716 26.9054 38.7827 26.9606C39.0955 27.0903 39.3753 27.2883 39.6016 27.5402C39.589 27.6599 39.4756 27.7543 39.3874 27.8236L39.3748 27.8362C39.1291 28.0252 38.8205 28.1512 38.5181 28.2772C38.3606 28.3402 38.2094 28.4032 38.0709 28.4725C37.9638 28.5228 37.9071 28.611 37.9701 28.7181C38.0331 28.8441 38.1716 28.7874 38.285 28.7496L38.3228 28.737L38.663 28.5921C39.0031 28.4473 39.3559 28.3087 39.6331 28.0882C39.8031 27.9559 39.9543 27.7669 39.9732 27.5402C39.9417 27.326 39.8031 27.1811 39.6394 27.0488C39.4087 26.8778 39.1643 26.7261 38.9086 26.5953L38.8394 26.5575C39.1795 26.3685 39.5197 26.2047 39.885 26.0725L40.2 25.9654C40.3443 25.9206 40.4853 25.8658 40.622 25.8016Z" fill="#F2D3B1"/>
<path d="M26.9465 21.5181C27.4981 21.436 28.0607 21.4667 28.6001 21.6084C29.1395 21.7501 29.6445 21.9999 30.0845 22.3426C30.5245 22.6852 30.8904 23.1137 31.1599 23.6019C31.4294 24.0901 31.597 24.628 31.6525 25.183C31.708 25.7379 31.6503 26.2983 31.4828 26.8303C31.3152 27.3622 31.0415 27.8546 30.678 28.2776C30.3146 28.7006 29.869 29.0455 29.3684 29.2912C28.8677 29.5369 28.3224 29.6784 27.7654 29.7071C26.7085 29.7616 25.6712 29.4073 24.8685 28.7176C24.0659 28.028 23.5594 27.0558 23.454 26.0028C23.3487 24.9498 23.6527 23.8966 24.3029 23.0617C24.9532 22.2267 25.8998 21.674 26.9465 21.5181Z" fill="black"/>
<path d="M26.8835 21.8898C27.3849 21.8009 27.8991 21.8148 28.3949 21.9306C28.8908 22.0464 29.358 22.2617 29.7681 22.5634C30.1783 22.8651 30.523 23.247 30.7811 23.6859C31.0393 24.1247 31.2057 24.6115 31.2702 25.1166C31.3347 25.6217 31.2959 26.1346 31.1562 26.6243C31.0165 27.1139 30.7789 27.5701 30.4576 27.9652C30.1364 28.3603 29.7383 28.686 29.2874 28.9226C28.8365 29.1593 28.3423 29.3018 27.8347 29.3418C26.8718 29.4175 25.9167 29.1199 25.1673 28.5105C24.418 27.9012 23.9317 27.0269 23.8095 26.0689C23.6872 25.1108 23.9382 24.1424 24.5105 23.3644C25.0828 22.5864 25.9325 22.0584 26.8835 21.8898Z" fill="white"/>
<path d="M16.2945 22.9481C17.1737 22.8608 18.0532 23.111 18.7549 23.6478C19.4567 24.1846 19.9282 24.968 20.0741 25.8394C20.2064 26.6238 20.0643 27.4299 19.6716 28.1218C19.2789 28.8136 18.6597 29.3489 17.9184 29.6375C17.177 29.926 16.3589 29.9502 15.6018 29.7058C14.8447 29.4615 14.195 28.9636 13.7623 28.2961C13.42 27.7685 13.2223 27.1603 13.189 26.5323C13.1539 25.6503 13.4562 24.7881 14.0343 24.1211C14.6123 23.4541 15.4228 23.0324 16.3008 22.9418L16.2945 22.9481Z" fill="black"/>
<path d="M15.9985 23.3638C16.8037 23.1901 17.645 23.3433 18.3373 23.7899C19.0295 24.2364 19.5161 24.9397 19.6898 25.7449C19.8636 26.5502 19.7103 27.3915 19.2638 28.0837C18.8172 28.776 18.114 29.2625 17.3087 29.4363C16.5035 29.61 15.6622 29.4568 14.9699 29.0102C14.2776 28.5637 13.7911 27.8604 13.6174 27.0552C13.4436 26.2499 13.5969 25.4086 14.0434 24.7164C14.49 24.0241 15.1932 23.5376 15.9985 23.3638Z" fill="white"/>
<path d="M28.5906 24.0378C28.9611 23.93 29.3585 23.9637 29.7056 24.1323C30.3355 24.4284 30.7576 25.2284 30.5182 25.9024C30.4592 26.1375 30.3453 26.3552 30.1858 26.5376C30.0263 26.7201 29.8257 26.862 29.6006 26.9518C29.3755 27.0416 29.1323 27.0767 28.891 27.0541C28.6497 27.0316 28.4172 26.952 28.2127 26.8221C27.9619 26.6643 27.7619 26.4376 27.6364 26.1692C27.511 25.9008 27.4655 25.6019 27.5054 25.3083C27.5452 25.0147 27.6688 24.7388 27.8612 24.5135C28.0536 24.2882 28.3069 24.1231 28.5906 24.0378ZM18.0143 24.926C18.8143 24.8252 19.5891 25.4615 19.608 26.2804C19.6709 27.0615 19.0221 27.8048 18.2347 27.8111C18.0434 27.8186 17.8525 27.7882 17.673 27.7216C17.4935 27.6549 17.329 27.5533 17.189 27.4227C17.049 27.2921 16.9363 27.135 16.8574 26.9605C16.7784 26.7861 16.7349 26.5977 16.7292 26.4063C16.716 26.0427 16.8414 25.6876 17.0799 25.4129C17.3184 25.1381 17.6524 24.9641 18.0143 24.926Z" fill="black"/>
<path d="M20.7543 19.7228C20.7984 20.0126 20.6598 20.3086 20.4897 20.5417C20.2684 20.8228 19.9946 21.0581 19.6834 21.2346C19.1984 21.5118 18.6756 21.726 18.159 21.9212C16.6557 22.4687 15.1061 22.8798 13.5291 23.1496C13.3149 23.1811 13.0882 23.2441 12.874 23.2126C12.748 23.1622 12.748 23.0425 12.8047 22.9354C12.9496 22.822 13.1512 22.759 13.3212 22.6834C15.5889 21.7638 17.8504 20.8315 20.1118 19.9055C20.3197 19.8236 20.5275 19.6913 20.7543 19.7165V19.7228ZM22.4551 19.7291L31.7779 21.1653C31.9417 21.1905 32.1118 21.1968 32.2693 21.2535C32.4204 21.3228 32.3763 21.5685 32.2063 21.5811C31.6015 21.6441 31.0031 21.6945 30.3921 21.7071C29.422 21.7071 28.4645 21.726 27.4945 21.6315C26.1779 21.5307 24.8362 21.3417 23.5763 20.9386C23.1354 20.7811 22.6315 20.5921 22.2976 20.2646C22.1842 20.1386 22.0456 19.9937 22.096 19.8173C22.1716 19.6787 22.3228 19.7165 22.4551 19.7291Z" fill="black"/>
<path d="M28.8174 30.6078C28.9685 30.6708 28.9433 30.822 28.9056 30.948C28.4926 31.797 27.8784 32.5322 27.1166 33.0897C26.0139 33.8663 24.6843 34.2541 23.337 34.1921C21.6489 34.1291 19.9985 33.4362 18.7134 32.3464C18.6882 32.1952 18.6819 32.1134 18.8016 32.0063C22.0646 31.559 25.5292 31.0614 28.8174 30.6078Z" fill="black"/>
<path d="M28.4331 31.0362C27.9165 31.9811 27.1102 32.7685 26.1401 33.2409C25.3472 33.6321 24.4731 33.8307 23.589 33.8204C22.0331 33.833 20.5023 33.2535 19.2677 32.3149C22.2913 31.8992 25.4283 31.4456 28.4331 31.0362Z" fill="#8F2E45"/>
<path fill-rule="evenodd" clip-rule="evenodd" d="M24.3764 4.26457C23.9984 4.15118 23.6079 4.0378 23.2173 4C23.0976 4 23.0283 4.08819 23.0157 4.20157C22.9717 4.67402 22.9717 5.15906 22.9843 5.6378C22.6063 5.75118 22.2913 5.92756 21.9827 6.19213V6.09134C21.9953 5.85827 22.0079 5.6378 21.9008 5.41732C21.7307 5.03307 21.2961 4.7874 20.8803 4.85039C20.6094 4.88189 20.3764 5.07087 20.2378 5.29134C20.0047 5.66929 19.9039 6.11024 20.0425 6.54488C19.6331 6.26142 19.0472 6.10394 18.5622 6.24252C18.5559 5.97795 18.5181 5.70079 18.3732 5.47402C18.3165 5.39213 18.2346 5.36693 18.1465 5.41102C17.6803 5.6252 17.252 5.91496 16.9559 6.34331L16.9118 6.29291C16.8399 6.20272 16.7438 6.13497 16.6346 6.09764C16.3197 6.00945 15.9669 6.11653 15.7087 6.30551C15.4807 6.51253 15.2965 6.76314 15.1669 7.04252C14.978 6.68346 14.6819 6.4315 14.2724 6.3748C13.6488 6.29291 13.0126 6.81575 12.9685 7.44567C12.937 7.82362 13.0693 8.15748 13.3402 8.41575C12.9685 8.59842 12.5843 8.85669 12.3953 9.23464C12.2948 9.42731 12.2351 9.63862 12.2199 9.85538C12.2048 10.0721 12.2344 10.2897 12.3071 10.4945C12.011 10.7276 11.9291 11.1496 12.0425 11.4961C12.1007 11.6506 12.186 11.7936 12.2945 11.9181L12.3197 11.9433L12.2819 11.9685C12.1386 12.0428 12.0121 12.1457 11.9102 12.2709C11.6583 12.6236 11.6331 13.1276 11.8976 13.4803C11.0912 14.5827 10.558 15.8608 10.3417 17.2094C10.2064 18.0666 10.2234 18.9409 10.3921 19.7921L10.4236 19.9496C10.474 20.1126 10.4869 20.2849 10.4614 20.4535C10.4173 20.6803 10.3543 20.9071 10.2913 21.1339L10.2094 21.4173C9.71107 23.2361 9.37381 25.0953 9.20158 26.9732C9.08789 28.1795 9.02484 29.39 9.0126 30.6016L9 31.2567C9.0252 33.4425 9.09449 35.5654 9.44724 37.7323C9.67654 39.0114 10.0115 40.2692 10.4488 41.4929C10.6378 42.0598 10.8709 42.5953 11.1732 43.1055C11.2425 43.2189 11.3433 43.2504 11.463 43.1937C11.5449 43.1118 11.5323 43.0236 11.526 42.9228L11.5134 42.8472C11.2487 41.0906 11.2572 39.3036 11.5386 37.5496C11.6016 37.0709 11.6646 36.5921 11.7654 36.1134C11.7654 36.3717 11.7906 36.6173 11.8283 36.863L11.8598 37.178C12.0677 38.6583 12.3638 40.1008 12.9055 41.4992C13.1253 42.0475 13.3605 42.5895 13.611 43.1244L13.6866 43.2882C13.7496 43.4331 13.8189 43.578 13.9071 43.7102C14.0079 43.8362 14.1528 43.811 14.285 43.7921L14.3606 43.7858C16.1244 43.5213 17.9008 43.3134 19.6835 43.1937C20.7921 43.1055 21.9071 43.074 23.022 43.1055C24.1937 43.1055 25.3843 43.3008 26.5181 43.5717L27.6016 43.8677C28.452 44.1071 29.2961 44.3402 30.2031 44.4535C31.463 44.6299 32.7669 44.4787 33.9512 44.0252C34.7449 43.7228 35.4756 43.2063 36.1118 42.6457C36.7165 42.1039 37.2646 41.5244 37.737 40.863C38.1543 40.3137 38.472 39.6954 38.6756 39.0362C38.789 39.4772 38.8835 39.9244 38.9339 40.378C39.0094 40.8441 38.9968 41.3228 38.9968 41.8079L38.9906 42.1543C38.978 42.8531 38.8764 43.5474 38.6882 44.2205C38.663 44.3276 38.6252 44.4535 38.7134 44.5417C38.8142 44.6362 38.9402 44.5858 39.0157 44.4787C39.4833 43.8309 39.8903 43.1413 40.2315 42.4189C41.2589 40.1602 41.9446 37.7613 42.2661 35.3008C42.5666 33.1835 42.6909 31.0449 42.6378 28.9071C42.6378 28.8315 42.6378 28.7496 42.5937 28.6929C42.5244 28.6551 42.4677 28.674 42.4047 28.6929L42.3417 28.7055C42.1809 29.1962 41.9181 29.6474 41.5708 30.0295C41.2234 30.4116 40.7992 30.7161 40.326 30.9228C39.4713 31.2715 38.521 31.3072 37.6425 31.0236C38.0835 29.6945 38.4992 28.3402 38.8016 26.9732C39.0535 25.9024 39.211 24.8315 39.3685 23.748C39.8813 23.7332 40.3896 23.8478 40.8465 24.0812C41.3034 24.3146 41.6941 24.6593 41.9827 25.0835C42.0457 25.1843 42.1276 25.2535 42.222 25.3165L42.285 25.2535C42.3543 25.1969 42.411 25.1528 42.3858 25.0268C42.0709 22.0661 41.4598 19.1244 40.4898 16.3087C40.8362 16.2961 41.1701 16.2268 41.4346 15.9811C41.6866 15.7102 41.7244 15.3071 41.6551 14.9606C41.6047 14.7213 41.485 14.5197 41.3528 14.3244C41.7307 14.2614 42.1276 14.1543 42.3291 13.789C42.4474 13.5446 42.473 13.2656 42.4012 13.0038C42.3294 12.742 42.165 12.5152 41.9386 12.3654L41.9638 12.3276C42.052 12.2016 42.1339 12.0756 42.1654 11.9244C42.2472 11.515 42.0268 11.0551 41.7496 10.7654C41.4661 10.4504 41.0252 10.3496 40.6157 10.4504C40.7606 10.1606 40.8362 9.85827 40.811 9.53071C40.8047 9.25354 40.6913 9.02677 40.5717 8.7811C40.7417 8.49764 40.8866 8.15748 40.8992 7.82992C40.9118 7.64094 40.7228 7.60315 40.578 7.57795L40.5276 7.56535C39.8409 7.40923 39.126 7.42873 38.4488 7.62205C38.411 7.26299 38.3291 6.90394 38.2031 6.57008C38.1843 6.46299 38.0394 6.4126 37.9512 6.44409C37.2835 6.71496 36.6031 7.01102 36.2504 7.68504C36.011 7.66614 35.7843 7.65984 35.5449 7.68504C35.6961 7.41417 35.8157 7.14331 35.7969 6.82205C35.8094 6.44409 35.6079 6.05354 35.2299 5.94646C34.7638 5.80787 34.1087 5.94646 33.8504 6.3874C33.7055 6.60787 33.6677 6.84724 33.6236 7.10551L33.611 7.2189L33.4661 7.02992C33.2276 6.68175 32.929 6.37885 32.5843 6.13543C32.3874 6.00636 32.1639 5.92346 31.9304 5.89291C31.697 5.86237 31.4597 5.88498 31.2362 5.95905C30.9859 6.05525 30.7752 6.23272 30.6378 6.46299C30.2598 6.12283 29.8378 6.19213 29.378 6.27402C29.5367 6.00126 29.6133 5.68846 29.5984 5.37323C29.548 4.8063 28.9244 4.41575 28.389 4.57323C27.9875 4.78184 27.6778 5.132 27.5197 5.55591C27.3307 5.22205 27.0661 4.94488 26.7638 4.71811C26.4488 4.50394 26.0583 4.42835 25.7244 4.61732C25.5669 4.69921 25.4976 4.83779 25.4095 4.98268L25.3906 5.02677C25.1394 4.67269 24.782 4.4079 24.3701 4.27087L24.3764 4.26457ZM22.6945 18.1417C22.6315 17.2787 22.5811 16.4157 22.4614 15.5591C22.0829 17.3876 21.9264 19.2552 21.9953 21.1213C22.0079 21.2535 21.9575 21.3858 21.8189 21.4362C21.674 21.4551 21.5228 21.4425 21.378 21.4362H21.315C20.937 21.4047 20.5591 21.3921 20.1811 21.3732C20.0488 21.3732 19.9102 21.3732 19.778 21.3606C19.3118 21.3291 18.8457 21.3102 18.3795 21.2976L17.4787 21.2535C17.315 21.2472 17.1512 21.2535 16.9811 21.2661L16.7165 21.285C16.6472 21.285 16.5969 21.2157 16.5591 21.1591L16.5339 21.115C15.9795 20.2331 15.6835 19.2441 15.5449 18.2173C15.4372 17.4451 15.3825 16.6663 15.3811 15.8866C15.1283 16.8972 14.9847 17.932 14.9528 18.9732V19.2693C14.9528 19.8299 14.9528 20.4032 15.0535 20.9386L15.0598 21.0016C15.0724 21.0898 15.085 21.1905 15.0283 21.2472C14.9024 21.3606 14.726 21.3606 14.5622 21.3543H14.4551C13.9323 21.3291 13.4157 21.3543 12.8929 21.3858H12.8173C12.6094 21.3858 12.4709 21.4992 12.326 21.6189C12.2863 21.6527 12.2464 21.6863 12.2063 21.7197C12.1181 21.7953 12.0299 21.8646 12.0173 21.9969C11.5796 24.5153 11.8502 27.1059 12.799 29.4796C13.7478 31.8532 15.3374 33.9165 17.3906 35.4394C19.8248 37.2453 22.7886 38.1938 25.819 38.1368C28.8494 38.0798 31.7756 37.0205 34.1402 35.1244C34.612 32.3036 34.8522 29.4489 34.8583 26.589V26.085C34.8961 25.4047 34.8898 24.7181 34.8898 24.0252V23.5717C34.8898 23.3575 34.8709 23.1496 34.852 22.9417C34.3795 22.7402 33.8945 22.5827 33.4031 22.4189L33.0504 22.2929C32.8614 22.2236 32.6661 22.148 32.6157 21.9213C32.4709 21.3228 32.2252 20.7685 31.9732 20.2079V20.2709C32.0047 20.7559 32.0362 21.3228 31.8787 21.7827C31.8283 21.9339 31.6709 21.9843 31.526 21.9717C30.9213 21.8835 30.3102 21.8079 29.6992 21.789H29.6362C29.5417 21.7827 29.4346 21.7764 29.3654 21.7008C29.3213 21.6315 29.3213 21.5307 29.315 21.4425V21.3669C29.3276 19.9055 28.874 18.4945 28.2567 17.1843C28.3323 18.4819 28.3197 19.7606 28.0803 21.0394V21.0457C28.0614 21.1465 28.0362 21.2535 27.948 21.3165C27.822 21.3984 27.6457 21.3795 27.5008 21.3606H27.463C26.484 21.2397 25.4939 21.2397 24.515 21.3606C24.1622 21.3921 23.8094 21.4236 23.463 21.4425C23.3677 21.4481 23.2738 21.4175 23.2002 21.3567C23.1266 21.2959 23.0787 21.2096 23.0661 21.115C22.915 20.3717 22.8394 19.6031 22.7575 18.8472L22.7071 18.3433L22.6945 18.1417Z" fill="black"/>
<path d="M26.5118 4.96377C26.7512 5.11763 26.9605 5.31405 27.1291 5.5433C27.2614 5.73227 27.2929 5.95275 27.4126 6.14172C27.4882 6.16692 27.5701 6.19212 27.6394 6.14172C27.7024 6.08503 27.7276 5.97794 27.7653 5.90235C27.8647 5.55647 28.0668 5.24894 28.3449 5.02046C28.6661 4.6866 29.2898 5.06456 29.252 5.4929C29.2331 5.84566 29.0063 6.17322 28.8488 6.46928C28.7921 6.55747 28.8488 6.61416 28.8803 6.70235C29.1827 6.68345 29.4598 6.55747 29.7622 6.55117C29.9512 6.54487 30.2031 6.51967 30.348 6.67086C30.5811 6.89763 30.7512 7.19999 30.7134 7.53385C30.6819 7.86141 30.5118 8.24566 30.2031 8.38424C29.9134 8.53542 29.5228 8.41574 29.1953 8.46613C29.1764 8.54172 29.1008 8.65511 29.1449 8.737C29.3024 8.95117 29.4976 9.10865 29.611 9.36692C29.737 9.60629 29.6614 9.89605 29.5606 10.1354C29.4346 10.4378 29.1449 10.6646 28.8236 10.7087C28.5687 10.7317 28.3127 10.6765 28.0899 10.5505C27.8671 10.4245 27.688 10.2335 27.5764 10.0031C27.4126 9.67558 27.4504 9.36062 27.4378 9.00786C27.3748 8.87558 27.085 8.90708 27.0787 9.08975C27.0537 9.40864 26.9771 9.72135 26.852 10.0157C26.7323 10.2677 26.5055 10.3937 26.2472 10.463C26.1015 10.5128 25.9473 10.5328 25.7936 10.522C25.64 10.5112 25.4901 10.4697 25.3528 10.4C25.1386 10.2362 25.0378 9.91495 25.0504 9.64408C25.1008 9.47401 25.1953 9.33542 25.1764 9.14015C25.1764 8.99527 25.0882 8.85668 25.0882 8.7055C25.2772 8.44093 25.5417 8.32755 25.7811 8.12597C25.863 8.06298 25.8126 7.9433 25.8126 7.85511C25.7433 7.85564 25.674 7.85774 25.6047 7.86141C25.3024 8.01259 24.8929 8.23936 24.5465 8.17637C24.1874 7.96849 23.8535 7.73542 23.4441 7.62204C23.8811 7.39738 24.2262 7.02769 24.4205 6.57637C24.8236 6.50078 25.2016 6.55117 25.5669 6.72755C25.7118 6.78424 25.8819 6.90393 26.0331 6.86613C26.1654 6.75905 26.1276 6.62046 26.052 6.50078C25.8138 6.14862 25.6966 5.72853 25.7181 5.30393C25.737 5.15904 25.7811 4.99527 25.9134 4.91967C26.0961 4.81259 26.3417 4.85668 26.5118 4.96377Z" fill="white"/>
<path d="M20.9433 5.19684C21.2394 5.15275 21.5606 5.38582 21.6362 5.68188C21.7181 5.98424 21.5984 6.3307 21.4913 6.61416C21.4535 6.72755 21.3653 6.86613 21.3905 6.99212C21.4787 7.1181 21.611 7.1244 21.7055 7.01102C21.9323 6.74645 22.1464 6.48818 22.4425 6.2992C22.8142 6.04094 23.2362 5.87716 23.6897 6.02204C23.8913 6.09133 24.1118 6.26141 24.0551 6.50708C23.9669 6.77794 23.7401 7.01101 23.5134 7.18109C23.2866 7.35747 23.0283 7.43306 22.7827 7.57164C22.7569 7.61531 22.745 7.66572 22.7484 7.71629C22.7517 7.76686 22.7703 7.81524 22.8016 7.85511C23.0787 7.9559 23.3685 7.9559 23.6457 8.08818C24.0488 8.27716 24.5086 8.55432 24.7417 8.94487C24.8929 9.17164 24.7858 9.42991 24.6157 9.59999C24.3512 9.85196 23.9354 9.91495 23.589 9.93385C23.3811 9.91495 23.085 9.90235 22.9464 9.72598C22.7267 9.48321 22.4864 9.25982 22.2283 9.05826C22.1401 9.00157 21.9764 9.03936 21.9764 9.15905C21.9386 9.27243 22.0331 9.36062 22.1023 9.42991C22.3795 9.66928 22.6819 9.93385 22.8646 10.2488C22.9569 10.4019 23.0123 10.5743 23.0266 10.7525C23.0408 10.9307 23.0133 11.1098 22.9464 11.2756C22.8834 11.4205 22.6756 11.4772 22.537 11.515C22.3424 11.5685 22.1392 11.5826 21.9391 11.5567C21.739 11.5307 21.5461 11.4651 21.3716 11.3638C21.1764 11.2504 21.0756 11.0614 21.0063 10.8598C20.9168 10.4566 20.9656 10.0351 21.1449 9.66298C21.189 9.5559 21.2331 9.47401 21.1701 9.35432C21.0756 9.29763 21 9.28503 20.9055 9.35432C20.8425 9.44251 20.7921 9.5433 20.7417 9.63149C20.4675 10.0798 20.1028 10.466 19.6709 10.7653C19.4567 10.9228 19.148 11.1181 18.8709 11.0425C18.6126 10.9543 18.537 10.6772 18.6252 10.4378C18.7764 10.0535 19.0472 9.65668 19.3622 9.39212C19.5764 9.20314 19.8157 9.14015 19.9606 8.91338C19.9354 8.85038 19.8976 8.79999 19.8724 8.7433C19.7653 8.7433 19.6772 8.7307 19.5827 8.79369C19.1606 9.00786 18.6441 9.17164 18.1716 9.13385C17.9197 9.09605 17.6047 9.02676 17.5039 8.7559C17.5417 8.48503 17.6992 8.18267 17.9638 8.06298C18.2157 7.937 18.5244 7.9055 18.8016 7.8992C19.0157 7.8929 19.2236 7.9559 19.4315 7.9622C19.6079 7.9433 19.6646 7.71023 19.5134 7.61574C19.3307 7.52125 19.0724 7.55275 18.8772 7.50235C18.5622 7.42046 18.2472 7.33227 18.1023 7.01102C18.2913 6.62046 18.7197 6.50708 19.1165 6.55747C19.5197 6.58267 19.8535 6.78424 20.1496 7.04881C20.2567 7.1622 20.5275 7.1118 20.5401 6.94172C20.4583 6.61416 20.2756 6.27401 20.3638 5.93385C20.4268 5.61889 20.6031 5.27873 20.937 5.19684H20.9433ZM31.4126 6.28031C31.5881 6.2387 31.7703 6.23344 31.948 6.26486C32.1257 6.29627 32.295 6.36369 32.4457 6.46298C32.9244 6.77794 33.2646 7.35747 33.6551 7.77952C33.7559 7.84251 33.9323 7.81102 33.9449 7.67243C33.9638 7.29448 33.9449 6.83464 34.1842 6.51338C34.4047 6.24251 34.789 6.21731 35.1039 6.27401C35.3685 6.3496 35.4567 6.63306 35.4504 6.87873C35.4126 7.31968 35.1228 7.74172 34.7575 7.99369C34.7701 8.06928 34.7386 8.21416 34.8205 8.25826C34.896 8.34015 35.0346 8.24566 35.1165 8.20787C35.3679 8.06517 35.6536 7.99439 35.9425 8.00328C36.2314 8.01216 36.5122 8.10038 36.7543 8.25826C37.0189 8.42204 37.1323 8.83779 36.9559 9.09605C36.7858 9.31023 36.452 9.38582 36.1874 9.41101C35.8787 9.46141 35.6016 9.37322 35.3055 9.36692C35.1228 9.37322 35.0913 9.63149 35.2425 9.70708C35.4945 9.83306 35.7338 9.88346 35.948 10.085C36.137 10.2677 36.2882 10.4882 36.3449 10.7527C36.4016 10.9921 36.3575 11.2819 36.1244 11.4142C35.822 11.6157 35.3811 11.6913 35.0787 11.452C34.6 11.1055 34.4425 10.589 34.2661 10.0535C34.222 9.86456 33.8882 9.87716 33.9134 10.0913C33.8945 10.7401 33.9386 11.3197 33.5984 11.9118C33.4598 12.1764 33.1071 12.2268 32.8425 12.2016C32.5212 12.1449 32.3701 11.8362 32.3197 11.5401C32.2378 10.8976 32.5527 10.2425 32.9307 9.73228C33.0063 9.64409 32.9937 9.5433 32.8992 9.48031C32.7858 9.38582 32.5842 9.5433 32.4771 9.59369C31.9417 9.84566 31.3622 10.148 30.7575 10.0157C30.5244 9.96535 30.1905 9.88976 30.096 9.63779C29.9764 9.35432 29.8819 9.08346 29.6803 8.84409C29.9134 8.83779 30.1338 8.82519 30.348 8.7181C30.537 8.62991 30.6504 8.47873 30.8646 8.42834C31.1543 8.35275 31.4819 8.36535 31.7779 8.40944C31.9543 8.42834 32.1748 8.53542 32.3449 8.46613C32.452 8.41574 32.3953 8.27716 32.3764 8.18897C31.9241 8.05072 31.4936 7.84925 31.0976 7.59054C31.0976 7.29448 31.0472 7.06141 30.9023 6.80314C30.9968 6.55747 31.1543 6.3622 31.4063 6.28031H31.4126ZM16.5716 6.46298C16.6787 6.52597 16.6661 6.65196 16.6787 6.75275C16.7039 7.19369 16.4898 7.57164 16.2315 7.8992C16.1685 7.98739 16.0551 8.08188 16.0866 8.20157C16.1055 8.28975 16.2126 8.32125 16.2756 8.34015C16.496 8.25826 16.7039 8.05039 16.9433 7.98739C17.1197 7.9433 17.3086 7.9433 17.4913 7.937C17.2709 8.22676 17.1134 8.53542 17.1512 8.90708C16.811 9.17794 16.6472 9.5433 16.4583 9.92755L15.8724 10.1921C15.2173 10.5008 14.6315 10.9039 14.0331 11.3008C13.9575 11.1496 13.8819 11.0173 13.8756 10.8472C13.863 10.6709 13.926 10.5197 13.9512 10.3433C13.9197 10.1858 13.7181 10.1354 13.611 10.2551C13.4094 10.4441 13.252 10.6331 12.9433 10.5764C12.6031 10.4882 12.5149 10.0724 12.5779 9.77637C12.6409 9.20944 13.1575 8.81259 13.674 8.66141C13.8126 8.64881 13.8693 8.44724 13.8126 8.34015C13.6929 8.19527 13.4976 8.10078 13.4094 7.9181C13.2835 7.62204 13.3023 7.26928 13.5291 7.02361C13.7433 6.79054 14.0772 6.62676 14.3921 6.75905C14.7701 6.88503 14.9212 7.26298 14.9842 7.62834C15.0031 7.79212 15.274 7.76062 15.3118 7.62204C15.4189 7.24409 15.6268 6.84094 15.9228 6.58267C16.0929 6.46298 16.3827 6.3559 16.5716 6.46298Z" fill="white"/>
<path d="M37.4157 8.67403C37.5669 8.51655 37.7937 8.62364 37.9575 8.70553C38.1825 8.83402 38.3797 9.00602 38.5376 9.2115C38.6955 9.41698 38.8109 9.65184 38.8772 9.90238C38.9212 10.0473 38.8583 10.2866 39.0283 10.3433C39.1291 10.4063 39.2551 10.2551 39.2551 10.1543C39.2866 9.78899 39.3055 9.43624 39.4756 9.10238C39.5171 9.01113 39.5763 8.92905 39.6499 8.86092C39.7234 8.79279 39.8098 8.73997 39.9039 8.70553C40.263 8.83151 40.4205 9.17167 40.4709 9.52443C40.5149 9.88348 40.389 10.2551 40.1559 10.5323C40.0803 10.6394 39.9732 10.7024 39.9984 10.8473C40.0614 10.9229 40.1244 10.9858 40.2252 10.9606C40.4834 10.8851 40.6913 10.7591 40.9811 10.7717C41.2646 10.7717 41.485 10.9606 41.6425 11.1937C41.7937 11.4268 41.9008 11.6977 41.7811 11.9748C41.7048 12.102 41.5936 12.2046 41.4608 12.2705C41.3279 12.3364 41.1789 12.3628 41.0315 12.3465C40.7669 12.3213 40.5842 12.1827 40.3449 12.0945C40.2315 12.0693 40.137 12.189 40.1433 12.2961C40.1433 12.378 40.2189 12.441 40.2693 12.504C40.4394 12.6992 40.5968 12.9764 40.6031 13.241C40.577 13.4696 40.4766 13.6834 40.3173 13.8495C40.158 14.0156 39.9486 14.1249 39.7212 14.1606C39.5323 14.1795 39.4 14.0473 39.2992 13.9087C39.1228 13.6378 39.085 13.304 38.9716 13.0331C38.9024 12.8882 38.6567 12.9134 38.6315 13.0835C38.4929 13.4992 38.2787 13.8772 37.8567 14.041C37.6929 14.104 37.5417 14.0095 37.4157 13.915C37.2016 13.726 37.0063 13.474 37.0063 13.178C36.9874 12.9197 37.126 12.6488 37.296 12.4536C37.4094 12.3276 37.548 12.2646 37.6866 12.1575C37.8 12.0441 37.6677 11.8362 37.5165 11.8803C37.0504 12.0022 36.5595 11.9913 36.0992 11.8488C36.326 11.7229 36.5401 11.6158 36.6472 11.3638C36.811 10.9543 36.7102 10.5134 36.4897 10.148C36.8362 10.3496 37.1638 10.5638 37.4724 10.8221C37.5795 10.9103 37.7307 10.9921 37.8441 10.8662C37.9449 10.7402 37.8252 10.6394 37.737 10.5638C37.3756 10.3149 37.0637 10.0009 36.8173 9.63781C37.0252 9.53073 37.2142 9.42364 37.3212 9.20947C37.4157 9.03309 37.3842 8.86301 37.4157 8.67403ZM12.4646 10.8032C12.5905 10.7843 12.7291 10.904 12.8425 10.9291C13.1008 11.0236 13.3149 10.9103 13.5417 10.8095C13.5417 11.0866 13.6299 11.2945 13.7748 11.5276C13.1623 12.0161 12.6066 12.5718 12.1181 13.1843C12.0561 13.0509 12.0373 12.9015 12.0645 12.7569C12.0916 12.6123 12.1632 12.4798 12.2693 12.378C12.4142 12.2394 12.622 12.2268 12.7984 12.1512C12.8992 12.0882 12.9181 11.874 12.7858 11.8299C12.6598 11.7417 12.5275 11.6788 12.4457 11.5402C12.3071 11.3386 12.2882 10.9732 12.4646 10.8032Z" fill="white"/>
<path d="M41.5543 12.611C41.6803 12.548 41.8063 12.6866 41.9008 12.7559C42.1339 12.989 42.1905 13.4614 41.9575 13.7134C41.7244 13.9213 41.4031 13.9591 41.1071 13.9654C40.9559 13.9591 40.8803 14.1165 40.8929 14.2488C41.0063 14.4504 41.1827 14.6079 41.2709 14.8284C41.3228 14.952 41.3496 15.0848 41.3496 15.2189C41.3496 15.353 41.3228 15.4858 41.2709 15.6095C41.1701 15.8173 40.874 15.9055 40.6598 15.937C40.5402 15.937 40.3953 15.9811 40.3386 15.8362C40.1622 15.4016 40.0047 14.9543 39.8409 14.5197C40.389 14.3874 40.874 13.9402 40.9496 13.3669C40.9743 13.1287 40.9306 12.8883 40.8236 12.674C41.0756 12.6866 41.315 12.6866 41.5543 12.611Z" fill="white"/>
<path d="M23.3685 4.37793C23.6646 4.42832 23.9607 4.50391 24.2504 4.5921C24.7544 4.73069 25.1638 5.14643 25.3465 5.62517C25.3969 5.86454 25.441 6.10391 25.5355 6.33069C25.1701 6.2236 24.7984 6.14801 24.4142 6.2425C24.326 6.07872 24.2441 5.92754 24.0803 5.81415C23.8609 5.67667 23.6085 5.60054 23.3496 5.59368C23.3496 5.19053 23.3307 4.77478 23.3685 4.37793ZM18.1528 5.80155C18.178 5.99053 18.1843 6.1858 18.1843 6.38108C17.9701 6.54486 17.7811 6.71494 17.7559 6.9984C17.7559 7.29446 17.9449 7.45824 18.1465 7.62832C17.8441 7.71021 17.5859 7.54643 17.2898 7.58423C17.1386 7.59683 16.9874 7.62832 16.8362 7.65982C16.9748 7.38895 17.0252 7.12439 17.063 6.82202C17.2883 6.35938 17.6763 5.99605 18.1528 5.80155ZM37.926 6.84092C38.0583 7.29446 38.1969 7.87399 38.0457 8.34013C37.8051 8.22568 37.5293 8.20985 37.2772 8.29604C37.1057 8.05299 36.8639 7.86832 36.5843 7.76691C36.9185 7.32015 37.3897 6.99496 37.926 6.84092ZM40.5339 7.91809C40.4846 8.11622 40.4192 8.31003 40.3386 8.49761C40.0992 8.39683 39.8851 8.30864 39.6331 8.42832C39.2677 8.5984 39.1355 8.93226 39.0032 9.29132C38.8356 9.00501 38.618 8.75111 38.3607 8.54171C38.4362 8.35273 38.4677 8.18265 38.4866 7.98738C39.0977 7.67242 39.8851 7.811 40.5402 7.91809H40.5339ZM17.3402 9.19053C17.5355 9.30391 17.7433 9.4299 17.9764 9.46769C18.2599 9.51179 18.537 9.48029 18.8205 9.4362C18.6189 9.62517 18.5181 9.87084 18.3544 10.0787C17.8945 10.4 17.1575 10.3811 16.6221 10.5197C16.7796 10.0661 16.9685 9.51179 17.3402 9.19053ZM32.2882 10.0598C32.0753 10.4441 31.9586 10.8742 31.9481 11.3134C31.7465 11.5527 31.5953 11.7984 31.3307 11.9748C31.0221 12.2016 30.7008 12.2142 30.3544 12.3716C30.3922 11.7417 30.3921 10.9417 30.7134 10.3811C30.9528 10.3811 31.2173 10.4063 31.4504 10.3622C31.7465 10.2992 32.0173 10.1858 32.2882 10.0598Z" fill="#A0CC59"/>
<path d="M27.2677 6.70869C27.4193 6.65659 27.5806 6.63917 27.7397 6.6577C27.8989 6.67623 28.0519 6.73025 28.1874 6.81578C28.4772 7.03625 28.6724 7.3953 28.5024 7.76066C28.3538 8.02663 28.1171 8.2325 27.8332 8.34287C27.5492 8.45324 27.2357 8.4612 26.9465 8.36538C26.7386 8.2394 26.5937 8.00633 26.6063 7.76066C26.6252 7.31971 26.8268 6.86617 27.2677 6.70869ZM20.7858 7.48349C21.0315 7.4205 21.2961 7.4205 21.5417 7.48349C21.6729 7.52921 21.7903 7.60754 21.8829 7.71113C21.9754 7.81471 22.0401 7.94014 22.0709 8.07562C22.1276 8.36538 21.9701 8.64255 21.7307 8.80633C21.4615 8.98876 21.1424 9.08337 20.8173 9.07719C20.6031 9.07719 20.3008 9.052 20.1748 8.84412C20.1181 8.66775 20.1559 8.45987 20.1622 8.27719C20.1874 7.91184 20.4268 7.58428 20.7921 7.48349H20.7858ZM33.5102 8.11342C33.9134 7.98743 34.474 8.19531 34.7071 8.55436C34.8084 8.6998 34.8534 8.8771 34.8337 9.05325C34.814 9.2294 34.7309 9.39238 34.6 9.51184C34.0583 9.98428 33.0252 9.68822 32.8803 8.96381C32.811 8.54176 33.1134 8.19531 33.5102 8.11342ZM14.726 8.27719C15.0283 8.17011 15.3874 8.27719 15.5197 8.59215C15.7842 9.20948 15.3433 9.94019 14.7071 10.0788C14.4236 10.1229 14.2031 9.8457 14.1339 9.60003C14.052 9.37956 14.1087 9.17798 14.1591 8.95751C14.2409 8.65515 14.411 8.38428 14.726 8.27719ZM38.6756 10.6898C39.1228 10.5764 39.652 10.7906 39.8283 11.2378C39.9606 11.5402 39.9669 11.9937 39.7213 12.2457C39.5323 12.4347 39.2614 12.4221 39.022 12.3591C38.7701 12.2709 38.4866 12.1449 38.348 11.8929C38.222 11.6536 38.1276 11.3449 38.2472 11.0803C38.3039 10.8914 38.4992 10.7654 38.6756 10.6898Z" fill="black"/>
<path d="M27.4378 7.00473C27.6267 6.94173 27.8472 7.01732 28.0047 7.11811C28.1748 7.2441 28.2567 7.46457 28.1433 7.65354C28.0615 7.76939 27.9554 7.86603 27.8325 7.93674C27.7096 8.00745 27.5727 8.05053 27.4315 8.06299C27.3055 8.06929 27.1228 8.08189 27.0409 7.9685C26.8204 7.63465 27.0661 7.10551 27.4378 7.01102V7.00473ZM20.8299 7.83622C21.0441 7.76693 21.3275 7.75433 21.5228 7.87402C21.7244 8 21.7685 8.30866 21.5795 8.45984C21.2897 8.68662 20.8866 8.7685 20.5338 8.67402C20.4079 8.39055 20.5149 7.94961 20.8299 7.83622ZM33.5102 8.49134C33.8819 8.37795 34.3354 8.51024 34.474 8.90079C34.5244 9.14646 34.3291 9.31654 34.1149 9.36063C33.7748 9.44252 33.3275 9.25984 33.2393 8.90079C33.2079 8.71181 33.3401 8.56063 33.5102 8.49134ZM14.8016 8.62362C14.959 8.54803 15.1039 8.57323 15.1921 8.73071C15.3685 9.09606 15.0661 9.5874 14.6945 9.70079C14.5811 9.74488 14.5181 9.6 14.4929 9.51181C14.4047 9.20315 14.4866 8.76221 14.8079 8.61732L14.8016 8.62362ZM38.7449 11.0236C38.9086 10.948 39.1228 11.011 39.2677 11.0992C39.4693 11.2063 39.5575 11.452 39.5764 11.6661C39.5701 11.7858 39.5197 11.9874 39.3937 12.0315C39.2047 12.063 38.9842 11.9622 38.8204 11.8677C38.6315 11.7543 38.6063 11.5402 38.537 11.3449C38.6 11.2315 38.6189 11.0803 38.7449 11.0236Z" fill="#F0DF83"/>
<path d="M24.6976 9.99054C24.7984 10.2803 24.9244 10.5827 25.2016 10.7401C25.4442 10.8448 25.7081 10.8907 25.9719 10.8743C26.2357 10.8579 26.4918 10.7796 26.7197 10.6457C26.9372 10.511 27.1086 10.3132 27.211 10.0787C27.3414 10.392 27.5661 10.6568 27.854 10.8363C28.1419 11.0158 28.4787 11.1011 28.8173 11.0803C29.3779 11.0173 29.8063 10.6142 29.9512 10.0787L30.3291 10.2866C30.1275 10.7527 30.0771 11.2315 30.0142 11.7228C30.0016 11.9748 29.9953 12.2331 30.0142 12.4913C30.0268 12.6299 30.0897 12.8189 30.2661 12.7937C30.4803 12.7307 30.6756 12.6047 30.896 12.548C31.3367 12.4243 31.7242 12.1586 31.9984 11.7921C32.1181 12.1512 32.3323 12.4535 32.7165 12.548C33.1134 12.611 33.6236 12.5354 33.8504 12.1701C34.0751 11.8097 34.2031 11.3975 34.222 10.9732C34.5055 11.5087 34.9779 12.0189 35.633 11.9811C36.0366 12.2185 36.5009 12.3324 36.9685 12.3087C36.6724 12.674 36.5905 13.1401 36.7291 13.5874C36.8425 13.852 37.0567 14.1102 37.296 14.2803C37.4913 14.4315 37.7811 14.4504 38.0142 14.3748C38.3606 14.2425 38.5937 13.9779 38.7827 13.6693C38.8582 13.8583 38.9338 14.0472 39.0661 14.2047C39.1669 14.337 39.3118 14.4189 39.4441 14.5071C39.7149 15.2504 40.011 15.9811 40.263 16.737C41.0067 18.9934 41.5443 21.3126 41.8693 23.6661C41.9008 23.9307 41.9323 24.2016 41.9827 24.4661C41.6517 24.1207 41.2535 23.8469 40.8125 23.6617C40.3715 23.4764 39.8972 23.3836 39.4189 23.389C39.4693 23.0488 39.5323 22.7149 39.589 22.3811C39.6079 22.2551 39.5512 22.1606 39.5134 22.0472C39.3055 22.085 39.2866 22.1291 39.2299 22.3244C39.022 23.4079 38.9149 24.5039 38.7134 25.5874C38.3606 27.6031 37.7685 29.4992 37.1197 31.4331C36.5174 33.2972 35.7545 35.1056 34.8393 36.8378C34.4396 37.6012 33.9936 38.3396 33.5039 39.0488C33.9023 37.9053 34.2098 36.7321 34.4236 35.5401C34.8645 33.2976 35.0535 30.9606 35.148 28.674C35.211 28.1953 35.1732 27.7102 35.211 27.2252C35.2299 25.8394 35.2425 24.4535 35.2047 23.074C35.463 23.1811 35.7275 23.3134 35.9984 23.389C36.1244 23.3953 36.2504 23.2126 36.137 23.1181C35.9984 22.9795 35.7653 22.9291 35.589 22.8409C34.7449 22.4945 33.8693 22.211 33 21.9275C32.7354 20.9197 32.2819 20.0504 31.822 19.1244C31.7653 19.0236 31.6897 18.8409 31.5386 18.8724C31.4252 18.8724 31.3748 18.9984 31.4 19.0992C31.5764 19.8866 31.7716 20.8189 31.5827 21.6189C30.9563 21.5301 30.3253 21.4775 29.6929 21.4614C29.6929 21.0898 29.6551 20.7244 29.6173 20.359C29.4338 19.0117 28.9749 17.7166 28.2693 16.5543C28.1685 16.422 28.1622 16.2394 28.137 16.0756C28.0866 15.6724 28.011 15.2693 27.9354 14.8661C27.8976 14.6772 27.8724 14.4441 27.7716 14.274C27.6897 14.2047 27.5386 14.211 27.4882 14.3181C27.4567 14.4063 27.4945 14.5197 27.5071 14.6142C27.7968 15.937 27.9606 17.2976 27.9291 18.6583C27.948 19.452 27.885 20.2331 27.7527 21.0142C27.2488 20.9638 26.7449 20.8945 26.2346 20.9071C25.296 20.9197 24.3638 21.052 23.4252 21.1149C23.2893 20.3214 23.1842 19.5229 23.1102 18.7212C22.9968 17.4551 22.9464 16.0756 22.7134 14.8157C22.6882 14.5638 22.3543 14.5008 22.2913 14.7653C21.9575 15.8992 21.8063 17.1024 21.6992 18.2803C21.6425 19.2126 21.6362 20.1449 21.6614 21.0772C20.8551 21.0646 20.0488 20.9764 19.2425 20.9764C18.4425 20.9764 17.6551 20.8756 16.8551 20.9386C16.2441 19.9937 15.9732 18.8787 15.8472 17.7764C15.767 17.1287 15.7417 16.4755 15.7716 15.8236C15.8472 14.7401 16.2252 13.7638 16.748 12.8252C16.811 12.7118 16.8866 12.5984 16.9244 12.4787C16.9118 12.3527 16.8173 12.3212 16.7228 12.2583C16.622 12.3464 16.5338 12.4346 16.4708 12.548C16.0566 13.2113 15.7044 13.9114 15.4189 14.6394C14.6609 16.6625 14.4227 18.8436 14.726 20.9827C14.0582 20.9827 13.3779 20.9575 12.7165 21.0457C12.4868 20.2937 12.416 19.5021 12.5086 18.7212C12.5716 18.1732 12.6661 17.6378 12.8488 17.1149C12.8929 16.9827 12.9559 16.8504 12.9811 16.7055C12.9937 16.5039 12.6976 16.4724 12.6346 16.6488C12.4708 17.0268 12.3575 17.4362 12.2756 17.8457C12.0677 18.9102 12.0173 20.1134 12.3701 21.1527C12.0803 21.3795 11.8031 21.6252 11.5134 21.8583C10.5882 20.1722 10.3663 18.189 10.896 16.3401C11.274 15.0047 12.0236 13.7701 12.9748 12.7622C13.9134 11.7669 15.0472 10.9795 16.2882 10.4C16.263 10.5701 16.0803 10.9228 16.3386 10.9921C16.5716 10.9291 16.7921 10.8283 17.0315 10.8031C17.4346 10.759 17.8315 10.7087 18.2094 10.5638C18.2409 10.7275 18.2472 10.9228 18.3354 11.0614C18.4614 11.2882 18.7323 11.4142 18.9905 11.4268C19.1991 11.4155 19.402 11.3551 19.5827 11.2504C19.9704 11.019 20.3191 10.7278 20.6157 10.3874C20.622 10.6394 20.6283 10.8787 20.7417 11.1118C20.8551 11.3197 20.9307 11.5275 21.1512 11.6535C21.3944 11.8046 21.6688 11.8984 21.9536 11.9279C22.2384 11.9573 22.5262 11.9217 22.7953 11.8236C23.022 11.748 23.211 11.6031 23.2992 11.3827C23.4325 11.0148 23.4235 10.6104 23.274 10.2488C23.759 10.3118 24.2756 10.2362 24.6976 9.99054Z" fill="#3EAC2C"/>
<path d="M10.707 20.9449C10.8645 21.3732 11.0535 21.8079 11.2992 22.1921C11.3874 22.3181 11.4692 22.2929 11.6078 22.2866C11.2535 24.5809 11.4743 26.9273 12.2505 29.1152C13.0267 31.3031 14.334 33.264 16.0551 34.8221C18.4577 37.0072 21.5425 38.2937 24.7858 38.463C25.3149 38.526 25.8377 38.5134 26.3606 38.463C29.1415 38.3242 31.8147 37.3446 34.0267 35.6536C33.9763 35.9622 33.9007 36.2709 33.8377 36.5795C33.5799 37.8003 33.1737 38.9849 32.6283 40.1071C32.5905 40.2016 32.5149 40.3276 32.5527 40.4347C32.6031 40.5292 32.6787 40.548 32.7858 40.5292C32.8929 40.441 32.9748 40.3276 33.0566 40.2205C33.7556 39.344 34.3834 38.4129 34.9338 37.4362C35.4494 36.5185 35.9121 35.5721 36.3196 34.6016C36.7606 33.5411 37.164 32.4654 37.5291 31.3764C38.3197 31.6255 39.1644 31.6473 39.9669 31.4394C40.9391 31.1748 41.7718 30.5452 42.2913 29.6819C42.2724 30.3181 42.3102 30.9417 42.2409 31.5717C42.1779 33.3291 41.97 35.0803 41.6362 36.8C41.1763 39.1307 40.4393 41.537 39.1921 43.5717C39.2425 43.2504 39.2992 42.9228 39.3181 42.5953C39.3559 41.8646 39.3811 41.1213 39.3055 40.3906C39.2299 39.7606 39.0976 39.1496 38.9212 38.5512C38.896 38.3685 38.6378 38.3307 38.5433 38.4693C38.4299 38.6583 38.3795 38.8914 38.2976 39.0992C37.981 39.8999 37.5245 40.6379 36.9496 41.2788C36.275 42.0821 35.4753 42.7713 34.5811 43.3197C34.0645 43.6284 33.4724 43.8236 32.8992 43.9685C32.0989 44.1569 31.2725 44.208 30.4551 44.1197C28.8803 43.9622 27.3811 43.3512 25.8881 43.0614C24.7802 42.8274 23.6504 42.7134 22.5181 42.7213C21.9511 42.7213 21.3842 42.6961 20.8299 42.7528C19.4377 42.8158 18.0456 42.9417 16.6598 43.1055C15.8157 43.1874 14.9779 43.3386 14.1338 43.4331C13.616 42.3632 13.1801 41.2556 12.8299 40.1197C12.3713 38.4618 12.1113 36.7554 12.0551 35.0362C11.9921 34.9921 11.9039 34.8788 11.822 34.9165C11.7086 34.9354 11.6771 35.074 11.6393 35.1685C11.444 35.8614 11.3244 36.5669 11.211 37.2851C10.9338 38.8725 10.896 40.4851 11.0472 42.0851C10.5163 40.6964 10.1115 39.2628 9.83775 37.8016C9.69868 37.0132 9.59777 36.2186 9.53539 35.4205C9.47239 35.0425 9.4724 34.6583 9.4598 34.274C9.38421 33.2662 9.37161 32.2583 9.35901 31.2504C9.36531 30.7465 9.38421 30.2425 9.38421 29.7386C9.4094 29.0898 9.4598 28.441 9.48499 27.7858C9.52279 27.4268 9.56688 27.074 9.58578 26.715C9.75586 25.0583 10.0645 23.4079 10.4866 21.8016C10.5559 21.5118 10.6503 21.2347 10.707 20.9386V20.9449Z" fill="#3EAC2C"/>
</g>
</g>
</g>
<defs>
<clipPath id="clip0_62_369">
<rect width="48" height="48" fill="white"/>
</clipPath>
<clipPath id="clip1_62_369">
<rect width="48" height="48" fill="white"/>
</clipPath>
</defs>
</svg>
