<svg width="52" height="52" viewBox="0 0 52 52" fill="none" xmlns="http://www.w3.org/2000/svg">
<g clip-path="url(#clip0_62_324)">
<rect width="52" height="52" fill="white"/>
<g clip-path="url(#clip1_62_324)">
<mask id="mask0_62_324" style="mask-type:luminance" maskUnits="userSpaceOnUse" x="2" y="2" width="48" height="48">
<path d="M50 2H2V50H50V2Z" fill="white"/>
</mask>
<g mask="url(#mask0_62_324)">
<path d="M26.9448 12.3812C29.3369 12.6945 31.6093 13.6139 33.5464 15.052C33.9369 15.3607 34.3338 15.6441 34.6802 15.9969C37.3227 18.4394 38.9393 21.794 39.2031 25.3827C39.9433 25.4508 40.6456 25.741 41.2178 26.2154C41.79 26.6899 42.2054 27.3262 42.4094 28.041C42.6481 28.9256 42.6093 29.8622 42.2984 30.724C41.9874 31.5859 41.4193 32.3315 40.6708 32.8599C39.9779 33.3449 39.1275 33.6158 38.2771 33.5969C37.9621 33.5969 37.6472 33.4961 37.3322 33.4835C37.2125 33.6221 37.1243 33.7922 37.0298 33.9434C35.8834 35.7517 34.3393 37.2744 32.5152 38.3955C30.691 39.5167 28.635 40.2066 26.5039 40.4126C25.8109 40.4567 25.1243 40.5386 24.4251 40.4567C21.9679 40.3389 19.5844 39.5799 17.5116 38.2552C15.4387 36.9305 13.7488 35.0862 12.6098 32.9057C11.4709 30.7253 10.9226 28.2846 11.0195 25.8266C11.1164 23.3685 11.8551 20.9786 13.1621 18.8945C14.343 17.0009 15.9574 15.4152 17.8719 14.2684C19.7865 13.1217 21.9463 12.4467 24.1731 12.2993C25.0928 12.2111 26.0251 12.2804 26.9448 12.3812Z" fill="black"/>
<path fill-rule="evenodd" clip-rule="evenodd" d="M33.4205 15.43C30.9672 13.5588 27.9508 12.577 24.8662 12.6457C24.0473 12.6331 23.2158 12.7465 22.4095 12.8977C19.9909 13.3831 17.7477 14.5111 15.9157 16.1631C14.0837 17.815 12.7305 19.93 11.9983 22.2857C11.2661 24.6414 11.1821 27.1508 11.7549 29.5502C12.3277 31.9496 13.5363 34.1504 15.2536 35.9213C17.3397 38.0708 20.0702 39.4811 23.0305 39.9381C25.9908 40.3951 29.0194 39.8739 31.6567 38.4536C33.8614 37.2693 35.7008 35.4741 36.9733 33.3197L36.7843 33.2189C36.6079 33.1307 36.4252 33.03 36.2803 32.904C36.1418 32.778 36.2614 32.5386 36.4504 32.6079C36.5449 32.652 36.6394 32.7087 36.7276 32.7591C37.3088 33.0868 37.9722 33.2397 38.6382 33.1995C39.3042 33.1593 39.9444 32.9276 40.4819 32.5323C41.1648 32.0504 41.6824 31.3696 41.9642 30.5828C42.246 29.7959 42.2783 28.9413 42.0567 28.1355C41.8203 27.3155 41.2795 26.617 40.5449 26.1827C40.099 25.9253 39.5993 25.7754 39.0854 25.7448C38.5715 25.7142 38.0575 25.8037 37.5843 26.0063C37.4835 26.0567 37.3701 26.1008 37.2693 26.0882C37.1118 26.0756 37.0929 25.8237 37.2315 25.7607C37.7355 25.5087 38.2709 25.4079 38.8315 25.3575C38.5768 21.8106 36.9499 18.5025 34.2961 16.1355C34.0189 15.8835 33.7481 15.6252 33.4205 15.4237V15.43ZM40.1984 27.789C40.3244 27.7134 40.2803 27.4678 40.1103 27.4741C39.9843 27.4741 39.8457 27.5244 39.7197 27.5748L39.6315 27.6C39.0601 27.7787 38.5186 28.042 38.0252 28.3811C37.8866 28.5071 37.8866 28.6583 38.0315 28.7717C38.1388 28.834 38.248 28.8928 38.3591 28.9481C38.6719 29.0777 38.9517 29.2757 39.178 29.5276C39.1654 29.6473 39.052 29.7418 38.9638 29.8111L38.9512 29.8237C38.7055 30.0126 38.3969 30.1386 38.0945 30.2646C37.937 30.3276 37.7859 30.3906 37.6473 30.4599C37.5402 30.5103 37.4835 30.5985 37.5465 30.7055C37.6095 30.8315 37.7481 30.7748 37.8614 30.737L37.8992 30.7244L38.2394 30.5796C38.5795 30.4347 38.9323 30.2961 39.2095 30.0756C39.3796 29.9433 39.5307 29.7544 39.5496 29.5276C39.5181 29.3134 39.3795 29.1685 39.2158 29.0363C38.9851 28.8653 38.7407 28.7136 38.4851 28.5827L38.4158 28.5449C38.7559 28.3559 39.0961 28.1922 39.4614 28.0599L39.7764 27.9528C39.9207 27.908 40.0617 27.8533 40.1984 27.789Z" fill="#9E5622"/>
<path d="M30.7369 26.3024C30.8125 26.3906 30.8881 26.4536 30.9196 26.567C31.0927 27.2562 31.0849 27.9784 30.8968 28.6637C30.7088 29.3489 30.347 29.974 29.8464 30.4784C29.3459 30.9828 28.7235 31.3493 28.0397 31.5425C27.3559 31.7357 26.6337 31.749 25.9432 31.5812C24.965 31.339 24.11 30.7456 23.5408 29.914C22.9717 29.0823 22.7282 28.0704 22.8566 27.0709C22.8944 26.8567 22.97 26.6174 23.2157 26.567C23.7574 26.4662 24.318 26.4788 24.8661 26.4158C26.3968 26.3178 27.9307 26.2758 29.4645 26.2898C29.8929 26.2646 30.3149 26.315 30.7369 26.3024Z" fill="black"/>
<path d="M30.0945 26.6489L30.5669 26.6678C30.8042 27.5678 30.6951 28.5242 30.2612 29.3476C29.8273 30.1711 29.1002 30.8018 28.2236 31.115C27.6065 31.3439 26.9399 31.4056 26.2912 31.294C25.6426 31.1823 25.0349 30.9013 24.5298 30.4793C24.0247 30.0573 23.6401 29.5094 23.4149 28.8909C23.1896 28.2725 23.1318 27.6055 23.2472 26.9575C23.3606 26.9134 23.4803 26.8756 23.6063 26.8693C24.6709 26.7811 25.7354 26.7182 26.8063 26.6804C26.7748 27.0079 26.7937 27.3355 26.9323 27.6504C27.0414 27.8889 27.2047 28.0985 27.4092 28.2625C27.6138 28.4266 27.8538 28.5405 28.1102 28.5953C28.4189 28.652 28.7338 28.6331 29.0299 28.526C29.5464 28.3497 29.9307 27.8961 30.063 27.3733C30.126 27.1276 30.1071 26.8945 30.1008 26.6489H30.0945Z" fill="white"/>
<path d="M19.0709 27.052C19.1968 27.0331 19.3102 27.0709 19.4362 27.0961C19.6286 27.5747 19.7116 28.0903 19.6793 28.6051C19.647 29.1199 19.5001 29.621 19.2495 30.0718C18.9988 30.5226 18.6506 30.9117 18.2303 31.2108C17.8101 31.5099 17.3284 31.7113 16.8203 31.8005C16.3123 31.8896 15.7907 31.8642 15.2937 31.7261C14.7968 31.5879 14.3369 31.3406 13.9477 31.0021C13.5585 30.6635 13.2499 30.2424 13.0442 29.7693C12.8386 29.2963 12.7411 28.7833 12.759 28.2678C13.1685 28.0599 13.5842 28.0284 14.0441 27.9213C15.3354 27.6568 16.6331 27.4111 17.937 27.2095C18.315 27.1465 18.6929 27.0835 19.0709 27.052Z" fill="black"/>
<path d="M19.1779 27.3859C19.2823 27.7118 19.3375 28.0515 19.3417 28.3937C19.3376 28.8265 19.2435 29.2536 19.0657 29.6481C18.8878 30.0426 18.6298 30.3958 18.3083 30.6854C17.9867 30.975 17.6085 31.1947 17.1976 31.3304C16.7867 31.4662 16.352 31.5151 15.9212 31.4741C15.1755 31.3948 14.4829 31.0504 13.9696 30.5036C13.4563 29.9567 13.1564 29.2438 13.1244 28.4945C14.0315 28.2678 14.9575 28.104 15.8771 27.9276C15.9117 28.1292 15.9858 28.3219 16.0949 28.4949C16.2041 28.6678 16.3463 28.8175 16.5134 28.9355C16.7977 29.1304 17.1401 29.2223 17.4838 29.1959C17.8275 29.1696 18.1518 29.0266 18.4031 28.7906C18.582 28.6152 18.7164 28.3997 18.7953 28.162C18.8742 27.9243 18.8952 27.6712 18.8567 27.4237L19.1779 27.3922V27.3859Z" fill="white"/>
<path d="M24.8157 20.9858C25.2062 20.9543 25.6409 20.948 25.981 21.1748C26.0925 21.2437 26.1797 21.3457 26.2305 21.4665C26.2814 21.5873 26.2932 21.7209 26.2645 21.8488C26.1637 22.2331 25.8424 22.5354 25.5338 22.7559C24.9608 23.1537 24.2989 23.4046 23.6062 23.4866C23.2535 23.5181 22.8188 23.5118 22.5038 23.3228C22.3901 23.2604 22.298 23.165 22.2395 23.0492C22.181 22.9334 22.159 22.8026 22.1763 22.674C22.2393 22.3087 22.5227 22.0126 22.8062 21.7921C23.3794 21.3512 24.0975 21.0803 24.822 20.9858H24.8157ZM16.5637 22.0441C17.1366 21.9921 17.7123 22.1081 18.2204 22.378C18.4661 22.5165 18.6865 22.7496 18.7243 23.0394C18.7432 23.3039 18.5983 23.5307 18.3905 23.6819C18.107 23.9087 17.7731 23.9969 17.4204 24.0598C16.7905 24.1228 16.1227 24.0787 15.5621 23.7701C15.3164 23.6315 15.0645 23.4047 15.033 23.1087C14.9826 22.8378 15.159 22.5732 15.3668 22.422C15.7223 22.186 16.1371 22.055 16.5637 22.0441Z" fill="black"/>
<path d="M21.4645 30.7622C22.0566 30.7244 22.6235 31.0898 23.0519 31.4677C23.6566 32.0221 24.1416 32.7339 24.5322 33.452C25.3259 34.9386 25.8424 36.6079 26.0188 38.2835C26.0503 38.5606 26.1133 38.8315 25.8613 39.0331C25.384 39.2354 24.8783 39.3629 24.3621 39.411C23.3542 39.4929 22.3149 39.3543 21.3385 39.1024C21.1873 39.0583 21.055 39.0457 20.9983 38.8756C20.3966 37.563 20.0136 36.1607 19.8645 34.7244C19.8015 33.9496 19.8015 33.1559 19.9779 32.3937C20.0677 31.9699 20.2553 31.573 20.5259 31.2347C20.759 30.9638 21.0991 30.7685 21.4645 30.7622Z" fill="black"/>
<path d="M21.7479 31.1402C22.3296 31.3264 22.8413 31.6843 23.2156 32.167C22.3337 32.5449 21.2691 32.7717 20.3306 32.5323C20.4062 32.1418 20.5699 31.7134 20.8471 31.43C21.0739 31.1906 21.4203 31.052 21.7479 31.1402Z" fill="white"/>
<path d="M23.474 32.4819C24.2571 33.5627 24.8415 34.7743 25.1999 36.0599C24.8031 36.1418 24.444 36.3119 24.0976 36.5008C23.3515 36.9236 22.7066 37.504 22.2078 38.2016C22.0629 38.4284 21.9118 38.6111 21.9181 38.8945C21.7291 38.8441 21.5401 38.8 21.3511 38.7685C20.822 37.6347 20.4692 36.4252 20.2866 35.1969C20.1639 34.4253 20.1576 33.6397 20.2677 32.8662C20.6078 32.9292 20.9291 33.0111 21.2755 32.9922C21.5905 32.9607 21.9055 32.9292 22.2204 32.8662C22.6551 32.7906 23.0582 32.6205 23.474 32.4819Z" fill="#8F2E45"/>
<path d="M25.0866 36.4315C25.1811 36.3937 25.2441 36.4441 25.3259 36.4756C25.5023 37.2126 25.6409 37.9559 25.6787 38.7118C25.1813 38.9016 24.6596 39.0203 24.1291 39.0646C23.4677 39.1276 22.8504 39.0205 22.2015 38.9512C22.479 38.3992 22.8621 37.9069 23.3291 37.5024C23.833 37.0551 24.4378 36.6457 25.0929 36.4315H25.0866Z" fill="#EA869E"/>
<path d="M18.7559 8.12286C19.6391 8.02369 20.5282 8.24989 21.2567 8.75908C21.6598 9.05514 22.0063 9.44569 22.1826 9.91813C22.336 10.3241 22.336 10.772 22.1826 11.178C24.1965 10.5683 26.2896 10.2605 28.3937 10.2646C28.8535 10.2772 29.3197 10.3087 29.7795 10.3465C31.7548 10.5174 33.6644 11.1403 35.3606 12.167C36.9297 13.1386 38.2022 14.5221 39.0393 16.167C39.7208 17.5343 40.1173 19.0259 40.2047 20.5512C41.9307 20.1355 43.8267 20.9921 44.8157 22.4284C45.3151 23.113 45.5581 23.9513 45.5023 24.7969C45.4897 24.9103 45.3763 24.9858 45.2756 25.0047C45.1118 24.967 44.9606 24.8473 44.8031 24.778C43.9431 24.368 43.0217 24.102 42.0756 23.9906C43.7763 25.1496 45.0677 26.9134 45.6661 28.8851C45.9811 29.8866 46.0819 30.9449 45.9685 31.9843C45.8541 33.0883 45.4033 34.1306 44.6771 34.9701C44.5763 35.0835 44.3433 35.1213 44.2929 34.9512C44.2929 34.3087 44.3307 33.5654 43.9968 32.9858C43.6537 34.0346 43.0097 34.9592 42.145 35.6447C41.2803 36.3301 40.2332 36.7462 39.1338 36.841C38.1826 36.9669 37.1811 36.8284 36.274 36.5323C35.9905 36.9292 35.7952 37.4142 35.8582 37.9055C35.8771 38.0126 35.7826 38.063 35.7134 38.126C35.5685 38.0252 35.411 37.937 35.2598 37.8362C34.8819 37.5906 34.5669 37.2819 34.2645 36.9481C34.2015 36.8851 34.1889 36.8032 34.17 36.7087C35.3228 35.7008 36.3118 34.4914 37.0677 33.1622C37.1559 32.9921 37.3197 33.0677 37.4645 33.0992C37.9842 33.2425 38.5298 33.2647 39.0594 33.1643C39.589 33.0638 40.0885 32.8433 40.5196 32.5197C41.3959 31.877 41.9842 30.9153 42.1574 29.8425C42.2456 29.1874 42.2204 28.526 41.9748 27.9087C41.6724 27.0898 41.0614 26.3969 40.2614 26.0378C39.5307 25.6977 38.6866 25.6599 37.9307 25.8929C37.6371 26.6265 37.2428 27.3155 36.759 27.9402C36.2976 28.5063 35.7687 29.014 35.1842 29.452C35.0771 29.5339 34.97 29.6032 34.8567 29.4898C34.7622 29.3764 34.8882 29.1685 34.9071 29.0362C35.096 28.2299 35.285 27.3984 35.285 26.567C35.3291 25.874 35.2913 25.1748 35.1779 24.4882C35.1464 24.3244 35.1401 24.1355 35.0645 23.9843C34.8756 23.9654 34.6866 23.9717 34.4976 23.9339C33.9802 23.8289 33.4986 23.5924 33.0992 23.2473C32.8468 23.035 32.6414 22.7724 32.496 22.4763C32.3507 22.1802 32.2686 21.8571 32.2551 21.5276C32.0415 21.9342 31.9455 22.3923 31.9779 22.8504C31.9779 22.9638 32.022 23.1465 31.9275 23.2284C31.8141 23.2977 31.6756 23.3229 31.5496 23.3418C30.7937 23.4299 29.9937 23.3733 29.2819 23.0961C28.5932 22.8355 28.0151 22.3462 27.6441 21.7103C27.2539 20.9906 27.1017 20.1659 27.2094 19.3544C27.2346 19.1402 27.285 18.9386 27.2976 18.7244C27.0267 19.2221 26.8189 19.7323 26.7307 20.2992C26.5773 21.0196 26.6077 21.7669 26.8189 22.4725C26.8441 22.567 26.8945 22.6803 26.863 22.7748C26.8378 22.8756 26.7244 22.9071 26.6299 22.863C26.1214 22.6082 25.6875 22.2263 25.37 21.7544C25.3448 22.0441 25.3763 22.2835 25.4708 22.5607C25.496 22.6866 25.5968 22.8504 25.496 22.9638C25.4141 23.0835 25.2567 23.0898 25.1307 23.1213C24.1283 23.3167 23.1139 23.445 22.0945 23.5055C21.5338 23.5685 20.9606 23.5433 20.3937 23.5433C19.1653 23.4866 17.8929 23.3355 16.7653 22.8189C16.0724 22.504 15.4299 22.0378 15.0897 21.3386C14.9448 21.0142 14.8595 20.6664 14.8378 20.3118C14.6614 20.4819 14.5354 20.6898 14.422 20.904C14.0818 21.5618 13.9067 22.2925 13.9118 23.0331C13.9118 23.2221 13.9622 23.411 13.9496 23.6063C13.9118 23.7512 13.7165 23.7449 13.5968 23.7197C13.1892 23.6322 12.7922 23.5013 12.4126 23.3292C12.1984 23.2347 12.0094 23.1087 11.7889 23.0205C11.5366 24.056 11.4034 25.117 11.3921 26.1827C11.3291 29.4583 12.5071 32.7339 14.6236 35.2284C14.7685 35.3984 14.9322 35.5307 14.9637 35.7701C14.8316 35.8991 14.6568 35.9753 14.4724 35.9843C13.3071 36.1481 12.2047 35.6693 11.3354 34.926C10.3303 34.068 9.63894 32.9002 9.37004 31.6063C9.28185 31.1654 9.28815 30.7307 9.29445 30.2835C8.71936 30.8943 8.37809 31.6884 8.33067 32.526C8.33067 32.6142 8.20469 32.6772 8.1165 32.652C8.02831 32.6268 7.99052 32.5449 7.94642 32.463C7.29034 31.0545 7.00003 29.5032 7.10233 27.9528C7.19052 26.567 7.57477 25.1307 8.33067 23.9528C8.8976 23.0709 9.65351 22.3465 10.6362 21.9622C10.0182 21.1515 9.69787 20.1528 9.7291 19.1339C9.7606 17.7733 10.3275 16.4882 11.1401 15.4173C12.3564 13.8596 14.0309 12.7227 15.9275 12.167C16.9672 11.8515 18.059 11.7445 19.1401 11.852C19.4362 11.8772 19.7197 11.9528 20.022 11.9969C20.0283 11.367 19.7197 10.8441 19.2913 10.4158C18.7528 9.88295 18.0527 9.54396 17.3008 9.45199C17.1559 9.42679 16.9795 9.47089 16.9102 9.31341C16.885 9.14963 17.011 9.02994 17.0992 8.91026C17.5354 8.45246 18.1254 8.17203 18.7559 8.12286Z" fill="black"/>
<path d="M19.0708 8.46302C19.8708 8.45042 20.6708 8.71498 21.2755 9.24412C21.5842 9.52128 21.8425 9.89924 21.9054 10.315C21.9873 10.6425 21.8991 10.9827 21.7228 11.2662C21.6598 11.3607 21.6157 11.4929 21.7165 11.5748C21.855 11.6693 22.0692 11.6 22.2204 11.5559C24.5994 10.8004 27.1016 10.5096 29.5905 10.6992C31.4745 10.8419 33.3034 11.4013 34.9448 12.337C36.444 13.2189 37.7102 14.4914 38.548 16.0221C39.3233 17.4466 39.771 19.0262 39.8582 20.6457C39.8645 20.7591 39.8582 20.8599 39.9779 20.9166C40.0598 20.9607 40.1417 20.9355 40.2299 20.9166C41.6661 20.5386 43.2724 21.1685 44.2299 22.2646C44.8125 22.9005 45.1438 23.7267 45.1621 24.589C44.0138 23.9749 42.7407 23.6302 41.4393 23.5811C41.2944 23.5685 41.2188 23.5811 41.1684 23.726C41.1684 23.8772 41.2755 23.915 41.3763 23.978C43.0141 24.9229 44.3117 26.4536 45.0424 28.1984C45.4582 29.2063 45.6913 30.3213 45.6535 31.4173C45.6157 32.4882 45.2944 33.578 44.6456 34.441C44.6267 34.1638 44.6267 33.8866 44.5826 33.6221C44.504 33.2156 44.3661 32.823 44.1732 32.4567C44.1165 32.3433 44.0157 32.2929 43.896 32.3559C43.77 32.4 43.77 32.5134 43.7259 32.6205C43.482 33.5371 42.9921 34.3696 42.3093 35.028C41.6266 35.6863 40.7768 36.1455 39.8519 36.3559C38.7432 36.6268 37.5464 36.5449 36.4629 36.211C36.2928 36.1606 36.1354 36.1858 36.022 36.3307C35.742 36.6932 35.5637 37.1237 35.5054 37.578C35.176 37.3656 34.8753 37.1115 34.611 36.8221C34.9763 36.4693 35.348 36.1229 35.6818 35.7386C36.3117 35.0457 36.8409 34.2709 37.3196 33.4709C37.6724 33.5087 37.9999 33.5969 38.3527 33.5969C39.0001 33.5905 39.6371 33.4335 40.2133 33.1383C40.7895 32.8431 41.289 32.4178 41.6724 31.8961C42.2109 31.1715 42.5222 30.3033 42.5669 29.4016C42.5921 28.5197 42.3653 27.6252 41.8487 26.9008C41.2818 26.0882 40.3432 25.515 39.348 25.4205C38.9259 25.3512 38.5102 25.3827 38.0881 25.4709C38.0881 25.326 38.1448 25.2 38.0377 25.0803C37.918 25.0614 37.8362 25.0614 37.7984 25.1874C37.6472 25.7921 37.3448 26.3654 37.0299 26.8945C36.5704 27.6465 35.9918 28.3188 35.3165 28.8851C35.4802 28.0662 35.6629 27.2851 35.644 26.441C35.6818 25.5465 35.581 24.6646 35.3795 23.7953C35.3606 23.6945 35.3102 23.6063 35.1905 23.6063C34.844 23.6 34.5165 23.6189 34.1826 23.4803C33.6661 23.2662 33.1306 22.9134 32.8472 22.4158C32.6107 21.9221 32.5128 21.3734 32.5637 20.8284C32.4944 20.6835 32.3117 20.7087 32.2425 20.841C32.085 21.1118 31.9149 21.389 31.8015 21.6851C31.6492 22.0958 31.5786 22.5323 31.5936 22.9701C30.6488 23.0961 29.6031 22.9827 28.7968 22.441C28.488 22.2296 28.224 21.9595 28.0197 21.6461C27.8154 21.3326 27.6749 20.982 27.6062 20.6142C27.4703 19.8211 27.5464 19.0062 27.8267 18.252C27.8645 18.1386 27.9338 17.9937 27.8771 17.874C27.8015 17.7418 27.6125 17.7921 27.5117 17.874C26.7693 18.7122 26.3359 19.7792 26.2834 20.8977C26.2204 21.3827 26.2834 21.8425 26.3653 22.3213C26.0042 22.0379 25.7042 21.6843 25.4834 21.2819C25.3889 21.1055 25.1432 21.1307 25.0928 21.326C24.9778 21.7969 24.9997 22.2908 25.1558 22.7496C23.3197 23.1325 21.4397 23.2618 19.5684 23.1339C18.4782 23.0649 17.4152 22.7642 16.4503 22.252C15.8897 21.9537 15.4689 21.4469 15.2787 20.841C15.1905 20.5134 15.2409 20.211 15.2346 19.8835C15.1527 19.7575 15.0204 19.7386 14.9007 19.8205C14.4953 20.1207 14.1795 20.5258 13.9873 20.9921C13.6438 21.7276 13.4921 22.5381 13.5464 23.3481C12.6211 23.1374 11.7778 22.66 11.1212 21.9748C10.7384 21.5495 10.4505 21.0475 10.2768 20.5023C10.103 19.957 10.0473 19.381 10.1133 18.8126C10.1763 18.0441 10.4409 17.2819 10.8062 16.6079C11.4047 15.4866 12.318 14.5292 13.3574 13.8047C14.5858 12.9481 16.0031 12.3874 17.4897 12.2173C18.3527 12.1103 19.2283 12.1795 20.0724 12.4063C20.1984 12.4441 20.2739 12.3685 20.318 12.2614C20.4566 11.6945 20.2865 11.1465 19.9716 10.6803C19.677 10.2544 19.298 9.89366 18.858 9.62057C18.418 9.34747 17.9265 9.16787 17.4141 9.09294C17.8671 8.68559 18.4553 8.46109 19.0645 8.46302H19.0708ZM10.8818 22.2646C11.0708 22.4536 11.2724 22.6236 11.4802 22.7937C11.1792 23.9433 11.0268 25.1267 11.0267 26.315C11.0053 29.7322 12.2304 33.04 14.4724 35.6189C13.8173 35.7386 13.1495 35.5811 12.5511 35.304C11.644 34.863 10.8881 34.1008 10.3842 33.2378C9.8688 32.387 9.61471 31.4035 9.65348 30.4095C9.65348 30.2394 9.70387 30.0693 9.69757 29.9055C9.64718 29.7607 9.50859 29.7355 9.38261 29.7984C9.11174 29.9244 8.89757 30.1701 8.72749 30.3969C8.41253 30.8189 8.19836 31.2977 8.05978 31.7953C7.60848 30.654 7.40037 29.4311 7.44875 28.2047C7.51174 26.7307 7.90859 25.2126 8.74639 23.9843C9.25633 23.1952 10.0075 22.592 10.8881 22.2646H10.8818Z" fill="#B9A05F"/>
</g>
</g>
</g>
<defs>
<clipPath id="clip0_62_324">
<rect width="52" height="52" fill="white"/>
</clipPath>
<clipPath id="clip1_62_324">
<rect width="48" height="48" fill="white" transform="translate(2 2)"/>
</clipPath>
</defs>
</svg>
