<svg width="54" height="54" viewBox="0 0 54 54" fill="none" xmlns="http://www.w3.org/2000/svg">
<rect width="54" height="54" fill="white"/>
<g clip-path="url(#clip0_62_349)">
<g clip-path="url(#clip1_62_349)">
<mask id="mask0_62_349" style="mask-type:luminance" maskUnits="userSpaceOnUse" x="3" y="3" width="48" height="48">
<path d="M51 3H3V51H51V3Z" fill="white"/>
</mask>
<g mask="url(#mask0_62_349)">
<path d="M27.9449 13.3811C30.337 13.6945 32.6094 14.6138 34.5465 16.052C34.937 16.3606 35.3339 16.6441 35.6804 16.9968C38.3228 19.4393 39.9394 22.794 40.2032 26.3827C40.9434 26.4507 41.6457 26.741 42.2179 27.2154C42.7901 27.6898 43.2055 28.3262 43.4095 29.0409C43.6482 29.9255 43.6095 30.8621 43.2985 31.724C42.9876 32.5858 42.4194 33.3314 41.6709 33.8598C40.978 34.3449 40.1276 34.6157 39.2772 34.5968C38.9622 34.5968 38.6473 34.496 38.3323 34.4835C38.2126 34.622 38.1244 34.7921 38.03 34.9433C36.8835 36.7516 35.3394 38.2744 33.5153 39.3955C31.6911 40.5166 29.6351 41.2065 27.504 41.4126C26.8111 41.4567 26.1244 41.5386 25.4252 41.4567C22.9681 41.3389 20.5845 40.5799 18.5117 39.2551C16.4389 37.9304 14.7489 36.0861 13.61 33.9057C12.471 31.7252 11.9227 29.2846 12.0196 26.8265C12.1165 24.3684 12.8552 21.9785 14.1622 19.8945C15.3432 18.0008 16.9575 16.4151 18.8721 15.2684C20.7866 14.1216 22.9464 13.4467 25.1733 13.2992C26.093 13.211 27.0252 13.2803 27.9449 13.3811Z" fill="black"/>
<path fill-rule="evenodd" clip-rule="evenodd" d="M34.4205 16.43C31.9672 14.5588 28.9508 13.577 25.8662 13.6457C25.0473 13.6331 24.2158 13.7465 23.4095 13.8977C20.9909 14.3831 18.7477 15.5111 16.9157 17.1631C15.0837 18.815 13.7305 20.93 12.9983 23.2857C12.2661 25.6414 12.1821 28.1508 12.7549 30.5502C13.3277 32.9496 14.5363 35.1504 16.2536 36.9213C18.3397 39.0708 21.0702 40.4811 24.0305 40.9381C26.9908 41.3951 30.0194 40.8739 32.6567 39.4536C34.8614 38.2693 36.7008 36.4741 37.9733 34.3197L37.7843 34.2189C37.6079 34.1307 37.4252 34.03 37.2803 33.904C37.1418 33.778 37.2614 33.5386 37.4504 33.6079C37.5449 33.652 37.6394 33.7087 37.7276 33.7591C38.3088 34.0868 38.9722 34.2397 39.6382 34.1995C40.3042 34.1593 40.9444 33.9276 41.4819 33.5323C42.1648 33.0504 42.6824 32.3696 42.9642 31.5828C43.246 30.7959 43.2783 29.9413 43.0567 29.1355C42.8203 28.3155 42.2795 27.617 41.5449 27.1827C41.099 26.9253 40.5993 26.7754 40.0854 26.7448C39.5715 26.7142 39.0575 26.8037 38.5843 27.0063C38.4835 27.0567 38.3701 27.1008 38.2693 27.0882C38.1118 27.0756 38.0929 26.8237 38.2315 26.7607C38.7355 26.5087 39.2709 26.4079 39.8315 26.3575C39.5768 22.8106 37.9499 19.5025 35.2961 17.1355C35.0189 16.8835 34.7481 16.6252 34.4205 16.4237V16.43ZM41.1984 28.789C41.3244 28.7134 41.2803 28.4678 41.1103 28.4741C40.9843 28.4741 40.8457 28.5244 40.7197 28.5748L40.6315 28.6C40.0601 28.7787 39.5186 29.042 39.0252 29.3811C38.8866 29.5071 38.8866 29.6583 39.0315 29.7717C39.1388 29.834 39.248 29.8928 39.3591 29.9481C39.6719 30.0777 39.9517 30.2757 40.178 30.5276C40.1654 30.6473 40.052 30.7418 39.9638 30.8111L39.9512 30.8237C39.7055 31.0126 39.3969 31.1386 39.0945 31.2646C38.937 31.3276 38.7859 31.3906 38.6473 31.4599C38.5402 31.5103 38.4835 31.5985 38.5465 31.7055C38.6095 31.8315 38.7481 31.7748 38.8614 31.737L38.8992 31.7244L39.2394 31.5796C39.5795 31.4347 39.9323 31.2961 40.2095 31.0756C40.3796 30.9433 40.5307 30.7544 40.5496 30.5276C40.5181 30.3134 40.3795 30.1685 40.2158 30.0363C39.9851 29.8653 39.7407 29.7136 39.4851 29.5827L39.4158 29.5449C39.7559 29.3559 40.0961 29.1922 40.4614 29.0599L40.7764 28.9528C40.9207 28.908 41.0617 28.8533 41.1984 28.789Z" fill="#F2D3B1"/>
<path fill-rule="evenodd" clip-rule="evenodd" d="M31.4725 26.4961C31.1006 25.8584 30.5633 25.3331 29.9173 24.9758C29.2713 24.6185 28.5408 24.4425 27.803 24.4664C27.0652 24.4903 26.3476 24.7132 25.7261 25.1115C25.1046 25.5098 24.6023 26.0688 24.2725 26.7292C24.0646 27.126 23.9449 27.5481 23.863 27.989C23.5859 28.0142 23.3087 28.0457 23.0441 28.115L23.063 28.2095C23.0819 28.2977 23.1008 28.3733 23.2079 28.3985C23.3528 28.4111 23.5103 28.3985 23.6551 28.3796L23.8315 28.367C23.7756 29.2784 24.0255 30.1824 24.5416 30.9357C25.0577 31.689 25.8105 32.2485 26.6806 32.5256C27.5507 32.8026 28.4884 32.7813 29.345 32.465C30.2016 32.1487 30.9282 31.5555 31.4095 30.7796C31.8189 30.137 32.0268 29.3937 32.0394 28.6378C32.0457 28.3922 32.0205 28.1654 31.989 27.9323L31.9638 27.7433L32.1528 27.7307C32.2914 27.7181 32.4362 27.7055 32.5811 27.6677C32.6504 27.6362 32.6693 27.567 32.6819 27.4914L32.7071 27.4032C32.4299 27.3339 32.1591 27.3528 31.8756 27.3843L31.7874 27.1638C31.6929 26.937 31.5985 26.7103 31.4662 26.4898L31.4725 26.4961ZM31.5103 27.4221C31.2836 26.7534 30.8739 26.1618 30.3278 25.7144C29.7816 25.2671 29.1209 24.9819 28.4207 24.8913C27.7206 24.8008 27.009 24.9085 26.367 25.2022C25.725 25.4959 25.1783 25.9638 24.789 26.5528C24.5075 26.9814 24.3186 27.4642 24.2347 27.9701C24.6126 27.926 24.9843 27.9071 25.3622 27.8756L26.2756 27.8063L26.9685 27.7622C27.2709 27.7433 27.5733 27.7307 27.8756 27.6929C28.9087 27.6237 29.9418 27.5418 30.9748 27.4599L31.5103 27.4221ZM18.8992 26.3449C19.6551 26.7544 20.2221 27.441 20.5118 28.241C20.6756 28.2536 20.8457 28.2662 21.0158 28.2914L21.0095 28.3355L20.9717 28.5244C20.9087 28.5748 20.8142 28.5874 20.726 28.6063L20.6252 28.6315C20.7168 29.109 20.7068 29.6004 20.5959 30.0738C20.485 30.5472 20.2757 30.9919 19.9817 31.3791C19.6877 31.7663 19.3154 32.0873 18.8892 32.3211C18.4629 32.555 17.9922 32.6965 17.5077 32.7365C17.0232 32.7766 16.5356 32.7141 16.0768 32.5533C15.618 32.3925 15.1981 32.137 14.8446 31.8033C14.491 31.4696 14.2116 31.0652 14.0246 30.6164C13.8376 30.1676 13.7471 29.6845 13.7591 29.1985L13.3055 29.1796L13.3118 29.0977C13.3181 29.0221 13.3244 28.9276 13.3874 28.8961C13.4819 28.8646 13.589 28.852 13.6898 28.8331C13.7276 28.8331 13.7654 28.8331 13.8032 28.8205C13.8915 28.2717 14.1106 27.7523 14.4419 27.306C14.7732 26.8597 15.207 26.4996 15.7067 26.2563C16.2065 26.0129 16.7574 25.8933 17.313 25.9077C17.8687 25.922 18.4127 26.0698 18.8992 26.3386V26.3449ZM20.1402 28.2851C19.9047 27.6477 19.4667 27.1052 18.8933 26.7406C18.3199 26.3761 17.6428 26.2097 16.9657 26.2669C16.2887 26.3241 15.6491 26.6017 15.145 27.0573C14.6408 27.5129 14.3001 28.1212 14.1748 28.789C14.6158 28.7638 15.0567 28.726 15.4977 28.6882C16.1248 28.6295 16.7527 28.5791 17.3811 28.537C17.7588 28.5066 18.1368 28.4793 18.515 28.4551C19.0567 28.4174 19.6048 28.3796 20.1402 28.2851Z" fill="black"/>
<path d="M31.6048 27.7811C31.7336 28.3764 31.7161 28.994 31.5538 29.581C31.3916 30.1681 31.0895 30.707 30.6733 31.1517C30.2571 31.5963 29.7393 31.9334 29.1643 32.1341C28.5893 32.3348 27.9742 32.3931 27.3717 32.304C26.4397 32.1639 25.5943 31.6789 25.0029 30.9451C24.4114 30.2114 24.117 29.2822 24.178 28.3418L24.7071 28.2914C24.7386 28.726 24.8835 29.1166 25.2111 29.4126C25.444 29.6304 25.7385 29.771 26.0543 29.8153C26.3701 29.8595 26.6919 29.8053 26.9757 29.6599C27.2595 29.5145 27.4916 29.2852 27.6403 29.003C27.7889 28.7209 27.8469 28.3998 27.8064 28.0835C28.0898 28.052 28.3733 28.0142 28.6505 27.9953C29.6394 27.9323 30.6221 27.8315 31.6111 27.7811H31.6048ZM20.0079 28.6882L20.241 28.6252C20.3943 29.3039 20.3163 30.0144 20.0192 30.6435C19.7222 31.2727 19.2233 31.7845 18.6018 32.0974C17.9803 32.4103 17.2721 32.5064 16.5897 32.3703C15.9074 32.2342 15.2902 31.8738 14.8363 31.3465C14.3353 30.7346 14.0834 29.9563 14.1308 29.167C15.1638 29.0662 16.2095 29.0032 17.2426 28.8898C17.2489 29.2425 17.3119 29.5701 17.5386 29.8473C17.7072 30.0673 17.9371 30.2326 18.1994 30.3223C18.4617 30.412 18.7447 30.422 19.0127 30.3512C19.4536 30.2063 19.8316 29.8473 19.9575 29.3937C20.0331 29.1544 19.9953 28.9339 20.0016 28.6882H20.0079Z" fill="white"/>
<path d="M27.1891 21.6142C28.745 21.6772 30.2127 22.1811 31.567 22.937C31.7056 23.0189 31.8757 23.0945 31.9954 23.2079C32.0773 23.3591 31.9702 23.5291 31.7938 23.4725C30.7546 23.1011 29.677 22.8476 28.5812 22.7165C27.2962 22.5654 26.0615 22.4835 24.7828 22.7102C24.5812 22.7354 24.3481 22.8425 24.1529 22.811C23.9828 22.704 24.071 22.4268 24.2284 22.3449C25.1139 21.7959 26.1499 21.5402 27.1891 21.6142ZM18.5592 22.7795C18.7796 22.8173 18.9749 22.8929 19.1639 23.0126C19.1551 23.088 19.1487 23.1636 19.145 23.2394C18.9749 23.2898 18.7985 23.3087 18.6284 23.3276C17.7883 23.4222 16.9643 23.6276 16.1781 23.9386C15.389 24.2245 14.6445 24.6211 13.967 25.1165C13.7844 25.2425 13.7025 25.4189 13.4568 25.3937L13.3623 25.2299C13.419 25.1291 13.4631 25.0284 13.5324 24.9339C14.1589 24.1079 14.9999 23.4695 15.9639 23.0882C16.7639 22.7606 17.7025 22.5843 18.5592 22.7732V22.7795Z" fill="black"/>
<path d="M26.1874 38.3764C26.3449 38.3827 26.4835 38.4646 26.4394 38.6409C26.3449 38.7669 26.1559 38.7228 26.0173 38.7354C25.0773 38.7758 24.148 38.9519 23.2583 39.2583C22.9516 39.3575 22.656 39.4884 22.3764 39.6488C22.2504 39.7118 22.1685 39.8126 22.0236 39.7433C21.8851 39.6425 21.948 39.5228 22.0236 39.4157C22.5654 39.1008 23.1386 38.8866 23.7307 38.7228C24.5307 38.5087 25.3685 38.3638 26.1874 38.3764Z" fill="black"/>
<path d="M22.0867 10.326C23.0126 10.263 23.9386 10.5024 24.7701 10.8992C25.6962 11.3084 26.4418 12.0406 26.8678 12.9591C26.9307 13.1228 26.9433 13.274 26.8237 13.4063C26.7292 13.4504 26.6032 13.4441 26.5087 13.4693C26.3197 13.5323 26.1748 13.6835 26.0993 13.8661C25.9229 14.263 25.8536 14.7102 25.715 15.126C25.5764 15.5669 25.3874 15.9764 25.0725 16.3228C24.2349 17.215 23.1523 17.8396 21.9607 18.1181C21.0275 18.3541 20.0478 18.3323 19.126 18.0551C18.641 17.9102 18.2378 17.589 17.967 17.1669C17.9166 17.085 17.9544 16.9465 18.0678 16.9402C18.3512 16.915 18.6221 16.9087 18.8867 16.789C19.252 16.6441 19.4536 16.2976 19.5166 15.9197C19.5859 15.3906 19.4851 14.9181 19.4284 14.3953C19.305 13.7255 19.2965 13.0396 19.4032 12.3669C19.504 11.8945 19.7244 11.4598 20.0772 11.126C20.6295 10.6263 21.3421 10.3404 22.0867 10.3197V10.326Z" fill="black"/>
<path d="M21.9606 10.6976C22.7984 10.6094 23.6803 10.8236 24.4488 11.1575C25.3496 11.5732 26.1496 12.1653 26.5653 13.0913C26.3907 13.126 26.2274 13.2034 26.0899 13.3166C25.9525 13.4298 25.8453 13.5754 25.7779 13.7402C25.5071 14.3638 25.4378 15.0693 25.0787 15.6929C24.8055 16.1049 24.4572 16.4618 24.0519 16.7449C22.9549 17.5725 21.6005 17.9853 20.2283 17.9102C19.611 17.8346 18.9685 17.7465 18.5212 17.2803C18.7557 17.2378 18.9828 17.1614 19.1953 17.0535C19.5669 16.8331 19.8063 16.4488 19.8756 16.0268C19.9638 15.2772 19.8063 14.6283 19.737 13.8976C19.6866 13.5701 19.6992 13.2236 19.7055 12.8898C19.737 12.348 19.9134 11.8063 20.3039 11.422C20.7569 10.9979 21.3417 10.7422 21.9606 10.6976Z" fill="#E5D7A3"/>
</g>
</g>
</g>
<defs>
<clipPath id="clip0_62_349">
<rect width="48" height="48" fill="white"/>
</clipPath>
<clipPath id="clip1_62_349">
<rect width="48" height="48" fill="white"/>
</clipPath>
</defs>
</svg>
