<svg width="24" height="24" viewBox="0 0 24 24" fill="none" xmlns="http://www.w3.org/2000/svg">
<path d="M21 4H18V3C18 2.45 17.55 2 17 2H7C6.45 2 6 2.45 6 3V4H3C2.45 4 2 4.45 2 5V8C2 12.29 3.79 14.88 6.81 14.99C7.25058 15.755 7.85455 16.4133 8.57881 16.9181C9.30307 17.4228 10.1298 17.7615 11 17.91V20H8V22H16V20H13V17.91C13.8707 17.7628 14.6979 17.4247 15.4224 16.9198C16.1468 16.4149 16.7505 15.7559 17.19 14.99C20.2 14.88 22 12.29 22 8V5C22 4.45 21.55 4 21 4ZM4 8V6H6V12C6 12.28 6.03 12.56 6.06 12.83C4.22 12.12 4 9.31 4 8ZM16 12C16 14.21 14.21 16 12 16C9.79 16 8 14.21 8 12V4H16V12ZM20 8C20 9.31 19.78 12.12 17.94 12.83C17.98 12.56 18 12.28 18 12V6H20V8Z" fill="#DDB468"/>
</svg>
