<svg width="17" height="17" viewBox="0 0 17 17" fill="none" xmlns="http://www.w3.org/2000/svg">
<path d="M8.33325 0.833313C7.33869 1.82787 6.77995 3.17679 6.77995 4.58331C6.77995 5.98984 7.33869 7.33875 8.33325 8.33331C9.32782 9.32787 10.6767 9.88661 12.0833 9.88661C13.4898 9.88661 14.8387 9.32787 15.8333 8.33331C15.8333 9.81667 15.3934 11.2667 14.5693 12.5001C13.7452 13.7335 12.5738 14.6948 11.2034 15.2624C9.83293 15.8301 8.32494 15.9786 6.87008 15.6892C5.41522 15.3998 4.07885 14.6855 3.02995 13.6366C1.98106 12.5877 1.26675 11.2513 0.977366 9.79649C0.687977 8.34163 0.836502 6.83363 1.40416 5.46319C1.97182 4.09274 2.93311 2.9214 4.16648 2.09729C5.39985 1.27318 6.8499 0.833313 8.33325 0.833313Z" stroke="#151829" stroke-width="1.66667" stroke-linecap="round" stroke-linejoin="round"/>
</svg>
