<svg width="18" height="18" viewBox="0 0 18 18" fill="none" xmlns="http://www.w3.org/2000/svg">
<path d="M5.75 17.5024H2.75C2.40324 17.5171 2.05697 17.4634 1.73101 17.3442C1.40505 17.2249 1.1058 17.0426 0.850377 16.8076C0.594953 16.5726 0.388372 16.2896 0.242455 15.9747C0.0965377 15.6598 0.0141479 15.3192 0 14.9724V2.53239C0.0141479 2.1856 0.0965377 1.845 0.242455 1.53009C0.388372 1.21518 0.594953 0.932132 0.850377 0.697142C1.1058 0.462153 1.40505 0.279834 1.73101 0.16062C2.05697 0.0414057 2.40324 -0.0123648 2.75 0.0023852H5.75C5.94891 0.0023852 6.13968 0.0814027 6.28033 0.222055C6.42098 0.362707 6.5 0.553473 6.5 0.752385C6.5 0.951298 6.42098 1.14206 6.28033 1.28272C6.13968 1.42337 5.94891 1.50239 5.75 1.50239H2.75C2.45307 1.47657 2.1576 1.56603 1.92487 1.75222C1.69213 1.9384 1.53999 2.20703 1.5 2.50239V14.9724C1.53999 15.2677 1.69213 15.5364 1.92487 15.7226C2.1576 15.9087 2.45307 15.9982 2.75 15.9724H5.75C5.94891 15.9724 6.13968 16.0514 6.28033 16.1921C6.42098 16.3327 6.5 16.5235 6.5 16.7224C6.5 16.9213 6.42098 17.1121 6.28033 17.2527C6.13968 17.3934 5.94891 17.4724 5.75 17.4724V17.5024ZM12.75 13.5024C12.6515 13.5029 12.5538 13.4836 12.4628 13.4459C12.3718 13.4081 12.2892 13.3525 12.22 13.2824C12.0795 13.1418 12.0007 12.9511 12.0007 12.7524C12.0007 12.5536 12.0795 12.363 12.22 12.2224L15.69 8.75239L12.22 5.28238C12.1463 5.21372 12.0872 5.13092 12.0462 5.03892C12.0052 4.94692 11.9832 4.84761 11.9814 4.74691C11.9796 4.6462 11.9982 4.54618 12.0359 4.45279C12.0736 4.3594 12.1297 4.27457 12.201 4.20335C12.2722 4.13213 12.357 4.07598 12.4504 4.03826C12.5438 4.00054 12.6438 3.98202 12.7445 3.98379C12.8452 3.98557 12.9445 4.00761 13.0365 4.0486C13.1285 4.0896 13.2113 4.1487 13.28 4.22238L17.28 8.22239C17.4205 8.36301 17.4993 8.55363 17.4993 8.75239C17.4993 8.95114 17.4205 9.14176 17.28 9.28238L13.28 13.2824C13.2108 13.3525 13.1282 13.4081 13.0372 13.4459C12.9462 13.4836 12.8485 13.5029 12.75 13.5024Z" fill="#161928"/>
<path d="M16.75 9.50238H5.75C5.55109 9.50238 5.36032 9.42336 5.21967 9.28271C5.07902 9.14206 5 8.95129 5 8.75238C5 8.55347 5.07902 8.3627 5.21967 8.22205C5.36032 8.0814 5.55109 8.00238 5.75 8.00238H16.75C16.9489 8.00238 17.1397 8.0814 17.2803 8.22205C17.421 8.3627 17.5 8.55347 17.5 8.75238C17.5 8.95129 17.421 9.14206 17.2803 9.28271C17.1397 9.42336 16.9489 9.50238 16.75 9.50238Z" fill="#161928"/>
</svg>
